<mxfile host="Electron" modified="2023-11-13T15:55:34.039Z" agent="Mozilla/5.0 (Macintosh; Intel Mac OS X 10_15_7) AppleWebKit/537.36 (KHTML, like Gecko) draw.io/21.7.5 Chrome/114.0.5735.289 Electron/25.8.1 Safari/537.36" etag="tH9FIS1EEI78hX-RCOOv" version="21.7.5" type="device" pages="6">
  <diagram name="Relationship Diagram" id="rVoneYP4u6-3yKzOvjNF">
    <mxGraphModel dx="1026" dy="743" grid="1" gridSize="10" guides="1" tooltips="1" connect="1" arrows="1" fold="1" page="1" pageScale="1" pageWidth="827" pageHeight="1169" math="0" shadow="0">
      <root>
        <mxCell id="0" />
        <mxCell id="1" parent="0" />
        <mxCell id="Rrb7v8XYxU68Q4NKc0hq-5" style="edgeStyle=orthogonalEdgeStyle;rounded=0;orthogonalLoop=1;jettySize=auto;html=1;exitX=1;exitY=0.25;exitDx=0;exitDy=0;entryX=0;entryY=0.25;entryDx=0;entryDy=0;" parent="1" source="Rrb7v8XYxU68Q4NKc0hq-1" target="Rrb7v8XYxU68Q4NKc0hq-3" edge="1">
          <mxGeometry relative="1" as="geometry" />
        </mxCell>
        <mxCell id="Rrb7v8XYxU68Q4NKc0hq-11" value="response resource" style="edgeLabel;html=1;align=center;verticalAlign=middle;resizable=0;points=[];" parent="Rrb7v8XYxU68Q4NKc0hq-5" vertex="1" connectable="0">
          <mxGeometry x="-0.1603" y="3" relative="1" as="geometry">
            <mxPoint as="offset" />
          </mxGeometry>
        </mxCell>
        <mxCell id="Rrb7v8XYxU68Q4NKc0hq-12" style="rounded=0;orthogonalLoop=1;jettySize=auto;html=1;exitX=0.75;exitY=1;exitDx=0;exitDy=0;entryX=0.25;entryY=0;entryDx=0;entryDy=0;" parent="1" source="Rrb7v8XYxU68Q4NKc0hq-1" target="Rrb7v8XYxU68Q4NKc0hq-2" edge="1">
          <mxGeometry relative="1" as="geometry" />
        </mxCell>
        <mxCell id="Rrb7v8XYxU68Q4NKc0hq-13" value="authenticate user" style="edgeLabel;html=1;align=center;verticalAlign=middle;resizable=0;points=[];" parent="Rrb7v8XYxU68Q4NKc0hq-12" vertex="1" connectable="0">
          <mxGeometry x="-0.012" y="-1" relative="1" as="geometry">
            <mxPoint as="offset" />
          </mxGeometry>
        </mxCell>
        <mxCell id="Rrb7v8XYxU68Q4NKc0hq-1" value="Resource Server" style="rounded=1;whiteSpace=wrap;html=1;" parent="1" vertex="1">
          <mxGeometry x="200" y="280" width="120" height="60" as="geometry" />
        </mxCell>
        <mxCell id="Rrb7v8XYxU68Q4NKc0hq-7" style="rounded=0;orthogonalLoop=1;jettySize=auto;html=1;exitX=1;exitY=0.5;exitDx=0;exitDy=0;entryX=0.643;entryY=0.981;entryDx=0;entryDy=0;entryPerimeter=0;" parent="1" source="Rrb7v8XYxU68Q4NKc0hq-2" target="Rrb7v8XYxU68Q4NKc0hq-3" edge="1">
          <mxGeometry relative="1" as="geometry" />
        </mxCell>
        <mxCell id="Rrb7v8XYxU68Q4NKc0hq-9" value="user ok" style="edgeLabel;html=1;align=center;verticalAlign=middle;resizable=0;points=[];" parent="Rrb7v8XYxU68Q4NKc0hq-7" vertex="1" connectable="0">
          <mxGeometry x="0.0081" y="-1" relative="1" as="geometry">
            <mxPoint as="offset" />
          </mxGeometry>
        </mxCell>
        <mxCell id="Rrb7v8XYxU68Q4NKc0hq-14" style="rounded=0;orthogonalLoop=1;jettySize=auto;html=1;exitX=0;exitY=0.75;exitDx=0;exitDy=0;entryX=0.25;entryY=1;entryDx=0;entryDy=0;" parent="1" source="Rrb7v8XYxU68Q4NKc0hq-2" target="Rrb7v8XYxU68Q4NKc0hq-1" edge="1">
          <mxGeometry relative="1" as="geometry" />
        </mxCell>
        <mxCell id="Rrb7v8XYxU68Q4NKc0hq-15" value="user ok" style="edgeLabel;html=1;align=center;verticalAlign=middle;resizable=0;points=[];" parent="Rrb7v8XYxU68Q4NKc0hq-14" vertex="1" connectable="0">
          <mxGeometry x="-0.0427" y="-1" relative="1" as="geometry">
            <mxPoint as="offset" />
          </mxGeometry>
        </mxCell>
        <mxCell id="Rrb7v8XYxU68Q4NKc0hq-2" value="Authorization Server" style="rounded=1;whiteSpace=wrap;html=1;" parent="1" vertex="1">
          <mxGeometry x="340" y="460" width="120" height="60" as="geometry" />
        </mxCell>
        <mxCell id="Rrb7v8XYxU68Q4NKc0hq-4" style="rounded=0;orthogonalLoop=1;jettySize=auto;html=1;exitX=0.25;exitY=1;exitDx=0;exitDy=0;entryX=0.75;entryY=0;entryDx=0;entryDy=0;" parent="1" source="Rrb7v8XYxU68Q4NKc0hq-3" target="Rrb7v8XYxU68Q4NKc0hq-2" edge="1">
          <mxGeometry relative="1" as="geometry" />
        </mxCell>
        <mxCell id="Rrb7v8XYxU68Q4NKc0hq-8" value="authenticate user" style="edgeLabel;html=1;align=center;verticalAlign=middle;resizable=0;points=[];" parent="Rrb7v8XYxU68Q4NKc0hq-4" vertex="1" connectable="0">
          <mxGeometry x="-0.0749" y="-1" relative="1" as="geometry">
            <mxPoint as="offset" />
          </mxGeometry>
        </mxCell>
        <mxCell id="Rrb7v8XYxU68Q4NKc0hq-6" style="edgeStyle=orthogonalEdgeStyle;rounded=0;orthogonalLoop=1;jettySize=auto;html=1;exitX=0;exitY=0.75;exitDx=0;exitDy=0;entryX=1;entryY=0.75;entryDx=0;entryDy=0;" parent="1" source="Rrb7v8XYxU68Q4NKc0hq-3" target="Rrb7v8XYxU68Q4NKc0hq-1" edge="1">
          <mxGeometry relative="1" as="geometry" />
        </mxCell>
        <mxCell id="Rrb7v8XYxU68Q4NKc0hq-10" value="request resource" style="edgeLabel;html=1;align=center;verticalAlign=middle;resizable=0;points=[];" parent="Rrb7v8XYxU68Q4NKc0hq-6" vertex="1" connectable="0">
          <mxGeometry x="0.175" y="-2" relative="1" as="geometry">
            <mxPoint as="offset" />
          </mxGeometry>
        </mxCell>
        <mxCell id="Rrb7v8XYxU68Q4NKc0hq-3" value="Client Server" style="rounded=1;whiteSpace=wrap;html=1;" parent="1" vertex="1">
          <mxGeometry x="480" y="280" width="120" height="60" as="geometry" />
        </mxCell>
      </root>
    </mxGraphModel>
  </diagram>
  <diagram id="im1yYAYZEK9TCfdzSiXQ" name="User Information Module">
    <mxGraphModel dx="1026" dy="743" grid="0" gridSize="10" guides="1" tooltips="1" connect="1" arrows="1" fold="1" page="0" pageScale="1" pageWidth="827" pageHeight="1169" background="#ffffff" math="0" shadow="0">
      <root>
        <mxCell id="0" />
        <mxCell id="1" parent="0" />
        <mxCell id="sLq4ozFSktvhpcjRz4El-1" value="用户信息模块" style="rounded=1;whiteSpace=wrap;html=1;strokeColor=#000000;" parent="1" vertex="1">
          <mxGeometry x="360" y="160" width="120" height="60" as="geometry" />
        </mxCell>
        <mxCell id="sLq4ozFSktvhpcjRz4El-2" value="用户登录" style="rounded=1;whiteSpace=wrap;html=1;strokeColor=#000000;" parent="1" vertex="1">
          <mxGeometry x="360" y="280" width="120" height="60" as="geometry" />
        </mxCell>
        <mxCell id="sLq4ozFSktvhpcjRz4El-9" style="edgeStyle=orthogonalEdgeStyle;rounded=0;orthogonalLoop=1;jettySize=auto;html=1;exitX=0.5;exitY=1;exitDx=0;exitDy=0;entryX=0.5;entryY=0;entryDx=0;entryDy=0;strokeColor=#000000;" parent="1" source="sLq4ozFSktvhpcjRz4El-1" target="sLq4ozFSktvhpcjRz4El-2" edge="1">
          <mxGeometry relative="1" as="geometry" />
        </mxCell>
        <mxCell id="sLq4ozFSktvhpcjRz4El-3" value="用户注册" style="rounded=1;whiteSpace=wrap;html=1;strokeColor=#000000;" parent="1" vertex="1">
          <mxGeometry x="200" y="280" width="120" height="60" as="geometry" />
        </mxCell>
        <mxCell id="sLq4ozFSktvhpcjRz4El-10" style="edgeStyle=orthogonalEdgeStyle;rounded=0;orthogonalLoop=1;jettySize=auto;html=1;exitX=0.5;exitY=1;exitDx=0;exitDy=0;entryX=0.5;entryY=0;entryDx=0;entryDy=0;strokeColor=#000000;" parent="1" source="sLq4ozFSktvhpcjRz4El-1" target="sLq4ozFSktvhpcjRz4El-3" edge="1">
          <mxGeometry relative="1" as="geometry" />
        </mxCell>
        <mxCell id="sLq4ozFSktvhpcjRz4El-4" value="修改密码" style="rounded=1;whiteSpace=wrap;html=1;strokeColor=#000000;" parent="1" vertex="1">
          <mxGeometry x="520" y="280" width="120" height="60" as="geometry" />
        </mxCell>
        <mxCell id="sLq4ozFSktvhpcjRz4El-11" style="edgeStyle=orthogonalEdgeStyle;rounded=0;orthogonalLoop=1;jettySize=auto;html=1;exitX=0.5;exitY=1;exitDx=0;exitDy=0;entryX=0.5;entryY=0;entryDx=0;entryDy=0;strokeColor=#000000;" parent="1" source="sLq4ozFSktvhpcjRz4El-1" target="sLq4ozFSktvhpcjRz4El-4" edge="1">
          <mxGeometry relative="1" as="geometry" />
        </mxCell>
        <mxCell id="sLq4ozFSktvhpcjRz4El-5" value="权限控制" style="rounded=1;whiteSpace=wrap;html=1;strokeColor=#000000;" parent="1" vertex="1">
          <mxGeometry x="280" y="380" width="120" height="60" as="geometry" />
        </mxCell>
        <mxCell id="sLq4ozFSktvhpcjRz4El-7" style="edgeStyle=orthogonalEdgeStyle;rounded=0;orthogonalLoop=1;jettySize=auto;html=1;exitX=0.5;exitY=1;exitDx=0;exitDy=0;entryX=0.5;entryY=0;entryDx=0;entryDy=0;strokeColor=#000000;" parent="1" source="sLq4ozFSktvhpcjRz4El-1" target="sLq4ozFSktvhpcjRz4El-5" edge="1">
          <mxGeometry relative="1" as="geometry">
            <Array as="points">
              <mxPoint x="420" y="250" />
              <mxPoint x="340" y="250" />
            </Array>
          </mxGeometry>
        </mxCell>
        <mxCell id="sLq4ozFSktvhpcjRz4El-6" value="记住我" style="rounded=1;whiteSpace=wrap;html=1;strokeColor=#000000;" parent="1" vertex="1">
          <mxGeometry x="440" y="380" width="120" height="60" as="geometry" />
        </mxCell>
        <mxCell id="sLq4ozFSktvhpcjRz4El-8" style="edgeStyle=orthogonalEdgeStyle;rounded=0;orthogonalLoop=1;jettySize=auto;html=1;exitX=0.5;exitY=1;exitDx=0;exitDy=0;entryX=0.5;entryY=0;entryDx=0;entryDy=0;strokeColor=#000000;" parent="1" source="sLq4ozFSktvhpcjRz4El-1" target="sLq4ozFSktvhpcjRz4El-6" edge="1">
          <mxGeometry relative="1" as="geometry">
            <Array as="points">
              <mxPoint x="420" y="250" />
              <mxPoint x="500" y="250" />
            </Array>
          </mxGeometry>
        </mxCell>
      </root>
    </mxGraphModel>
  </diagram>
  <diagram id="6FEJZYUotRorozTlPBxn" name="Resource Management Module">
    <mxGraphModel dx="1026" dy="743" grid="1" gridSize="10" guides="1" tooltips="1" connect="1" arrows="1" fold="1" page="1" pageScale="1" pageWidth="827" pageHeight="1169" background="#ffffff" math="0" shadow="0">
      <root>
        <mxCell id="0" />
        <mxCell id="1" parent="0" />
        <mxCell id="hBpWAB-fAbg182p_7-U7-6" style="edgeStyle=orthogonalEdgeStyle;rounded=0;orthogonalLoop=1;jettySize=auto;html=1;exitX=0.5;exitY=1;exitDx=0;exitDy=0;entryX=0.5;entryY=0;entryDx=0;entryDy=0;strokeColor=#000000;" parent="1" source="hBpWAB-fAbg182p_7-U7-1" target="hBpWAB-fAbg182p_7-U7-2" edge="1">
          <mxGeometry relative="1" as="geometry" />
        </mxCell>
        <mxCell id="hBpWAB-fAbg182p_7-U7-7" style="edgeStyle=orthogonalEdgeStyle;rounded=0;orthogonalLoop=1;jettySize=auto;html=1;exitX=0.5;exitY=1;exitDx=0;exitDy=0;entryX=0.5;entryY=0;entryDx=0;entryDy=0;strokeColor=#000000;" parent="1" source="hBpWAB-fAbg182p_7-U7-1" target="hBpWAB-fAbg182p_7-U7-5" edge="1">
          <mxGeometry relative="1" as="geometry" />
        </mxCell>
        <mxCell id="hBpWAB-fAbg182p_7-U7-1" value="资源管理模块" style="rounded=1;whiteSpace=wrap;html=1;strokeColor=#000000;" parent="1" vertex="1">
          <mxGeometry x="360" y="160" width="120" height="60" as="geometry" />
        </mxCell>
        <mxCell id="hBpWAB-fAbg182p_7-U7-8" style="edgeStyle=orthogonalEdgeStyle;rounded=0;orthogonalLoop=1;jettySize=auto;html=1;exitX=0.5;exitY=1;exitDx=0;exitDy=0;entryX=0.5;entryY=0;entryDx=0;entryDy=0;strokeColor=#000000;" parent="1" source="hBpWAB-fAbg182p_7-U7-2" target="hBpWAB-fAbg182p_7-U7-3" edge="1">
          <mxGeometry relative="1" as="geometry" />
        </mxCell>
        <mxCell id="hBpWAB-fAbg182p_7-U7-9" style="edgeStyle=orthogonalEdgeStyle;rounded=0;orthogonalLoop=1;jettySize=auto;html=1;exitX=0.5;exitY=1;exitDx=0;exitDy=0;entryX=0.5;entryY=0;entryDx=0;entryDy=0;strokeColor=#000000;" parent="1" source="hBpWAB-fAbg182p_7-U7-2" target="hBpWAB-fAbg182p_7-U7-4" edge="1">
          <mxGeometry relative="1" as="geometry" />
        </mxCell>
        <mxCell id="hBpWAB-fAbg182p_7-U7-2" value="设备配置" style="rounded=1;whiteSpace=wrap;html=1;strokeColor=#000000;" parent="1" vertex="1">
          <mxGeometry x="200" y="280" width="120" height="60" as="geometry" />
        </mxCell>
        <mxCell id="hBpWAB-fAbg182p_7-U7-3" value="设备创建" style="rounded=1;whiteSpace=wrap;html=1;strokeColor=#000000;" parent="1" vertex="1">
          <mxGeometry x="120" y="400" width="120" height="60" as="geometry" />
        </mxCell>
        <mxCell id="hBpWAB-fAbg182p_7-U7-4" value="设备修改" style="rounded=1;whiteSpace=wrap;html=1;strokeColor=#000000;" parent="1" vertex="1">
          <mxGeometry x="280" y="400" width="120" height="60" as="geometry" />
        </mxCell>
        <mxCell id="hBpWAB-fAbg182p_7-U7-12" style="edgeStyle=orthogonalEdgeStyle;rounded=0;orthogonalLoop=1;jettySize=auto;html=1;exitX=0.5;exitY=1;exitDx=0;exitDy=0;entryX=0.5;entryY=0;entryDx=0;entryDy=0;strokeColor=#000000;" parent="1" source="hBpWAB-fAbg182p_7-U7-5" target="hBpWAB-fAbg182p_7-U7-10" edge="1">
          <mxGeometry relative="1" as="geometry" />
        </mxCell>
        <mxCell id="hBpWAB-fAbg182p_7-U7-13" style="edgeStyle=orthogonalEdgeStyle;rounded=0;orthogonalLoop=1;jettySize=auto;html=1;exitX=0.5;exitY=1;exitDx=0;exitDy=0;entryX=0.5;entryY=0;entryDx=0;entryDy=0;strokeColor=#000000;" parent="1" source="hBpWAB-fAbg182p_7-U7-5" target="hBpWAB-fAbg182p_7-U7-11" edge="1">
          <mxGeometry relative="1" as="geometry" />
        </mxCell>
        <mxCell id="hBpWAB-fAbg182p_7-U7-5" value="统计" style="rounded=1;whiteSpace=wrap;html=1;strokeColor=#000000;" parent="1" vertex="1">
          <mxGeometry x="520" y="280" width="120" height="60" as="geometry" />
        </mxCell>
        <mxCell id="hBpWAB-fAbg182p_7-U7-10" value="设备统计信息" style="rounded=1;whiteSpace=wrap;html=1;strokeColor=#000000;" parent="1" vertex="1">
          <mxGeometry x="440" y="400" width="120" height="60" as="geometry" />
        </mxCell>
        <mxCell id="hBpWAB-fAbg182p_7-U7-11" value="设备分布" style="rounded=1;whiteSpace=wrap;html=1;strokeColor=#000000;" parent="1" vertex="1">
          <mxGeometry x="600" y="400" width="120" height="60" as="geometry" />
        </mxCell>
      </root>
    </mxGraphModel>
  </diagram>
  <diagram id="znEeh3KnBt-6HSfU_CaU" name="服务端项目层次结构">
    <mxGraphModel dx="1426" dy="1143" grid="1" gridSize="10" guides="1" tooltips="1" connect="1" arrows="1" fold="1" page="0" pageScale="1" pageWidth="827" pageHeight="1169" background="#ffffff" math="0" shadow="0">
      <root>
        <mxCell id="0" />
        <mxCell id="1" parent="0" />
        <mxCell id="DPTyqg8GNXkZNVYLNUWX-1" value="&lt;h3 style=&quot;text-align: left;&quot;&gt;&lt;span style=&quot;color: rgb(0, 0, 0); background-color: initial;&quot;&gt;GraphQL&lt;/span&gt;&lt;/h3&gt;&lt;font color=&quot;#000000&quot;&gt;&lt;div style=&quot;text-align: left;&quot;&gt;&lt;span style=&quot;background-color: initial;&quot;&gt;Request:&amp;nbsp;&lt;/span&gt;&lt;/div&gt;&lt;div style=&quot;text-align: left;&quot;&gt;&lt;span style=&quot;background-color: initial;&quot;&gt;query {&lt;/span&gt;&lt;/div&gt;&lt;div style=&quot;text-align: left;&quot;&gt;&lt;span style=&quot;background-color: initial;&quot;&gt;&lt;span style=&quot;white-space: pre;&quot;&gt;&lt;span style=&quot;white-space: pre;&quot;&gt;&#x9;&lt;/span&gt;...&#x9;&lt;/span&gt;&lt;br&gt;&lt;/span&gt;&lt;/div&gt;&lt;div style=&quot;text-align: left;&quot;&gt;&lt;span style=&quot;background-color: initial;&quot;&gt;}&lt;/span&gt;&lt;/div&gt;&lt;div style=&quot;text-align: left;&quot;&gt;&lt;span style=&quot;background-color: initial;&quot;&gt;mutation {&lt;/span&gt;&lt;/div&gt;&lt;div style=&quot;text-align: left;&quot;&gt;&lt;span style=&quot;background-color: initial;&quot;&gt;&lt;span style=&quot;white-space: pre;&quot;&gt;&#x9;&lt;/span&gt;...&lt;br&gt;&lt;/span&gt;&lt;/div&gt;&lt;div style=&quot;text-align: left;&quot;&gt;&lt;span style=&quot;background-color: initial;&quot;&gt;}&lt;/span&gt;&lt;/div&gt;&lt;div style=&quot;text-align: left;&quot;&gt;&lt;span style=&quot;background-color: initial;&quot;&gt;&lt;br&gt;&lt;/span&gt;&lt;/div&gt;&lt;div style=&quot;text-align: left;&quot;&gt;&lt;span style=&quot;background-color: initial;&quot;&gt;Response:&lt;/span&gt;&lt;/div&gt;&lt;div style=&quot;text-align: left;&quot;&gt;&lt;span style=&quot;background-color: initial;&quot;&gt;{JSON}&lt;/span&gt;&lt;/div&gt;&lt;/font&gt;" style="rounded=0;whiteSpace=wrap;html=1;fillColor=none;strokeColor=#000000;" parent="1" vertex="1">
          <mxGeometry x="200" y="-80" width="80" height="440" as="geometry" />
        </mxCell>
        <mxCell id="DPTyqg8GNXkZNVYLNUWX-2" value="&lt;h3 style=&quot;&quot;&gt;&lt;font color=&quot;#000000&quot;&gt;Authentication Filter&lt;/font&gt;&lt;br&gt;&lt;/h3&gt;" style="rounded=0;whiteSpace=wrap;html=1;fillColor=none;strokeColor=#000000;" parent="1" vertex="1">
          <mxGeometry x="-180" y="-80" width="100" height="200" as="geometry" />
        </mxCell>
        <mxCell id="DPTyqg8GNXkZNVYLNUWX-6" value="&lt;h3 style=&quot;&quot;&gt;&lt;font color=&quot;#000000&quot;&gt;@PreAuthorize&lt;/font&gt;&lt;br&gt;&lt;/h3&gt;" style="rounded=0;whiteSpace=wrap;html=1;fillColor=none;strokeColor=#000000;" parent="1" vertex="1">
          <mxGeometry x="-10" y="-80" width="120" height="200" as="geometry" />
        </mxCell>
        <mxCell id="DPTyqg8GNXkZNVYLNUWX-7" value="&lt;h3 style=&quot;text-align: left;&quot;&gt;&lt;span style=&quot;color: rgb(0, 0, 0); background-color: initial;&quot;&gt;MySQL&lt;/span&gt;&lt;/h3&gt;" style="rounded=0;whiteSpace=wrap;html=1;fillColor=none;strokeColor=#000000;" parent="1" vertex="1">
          <mxGeometry x="770" y="-80" width="80" height="440" as="geometry" />
        </mxCell>
        <mxCell id="DPTyqg8GNXkZNVYLNUWX-8" value="&lt;h3 style=&quot;text-align: left;&quot;&gt;&lt;span style=&quot;color: rgb(0, 0, 0); background-color: initial;&quot;&gt;@Repository&lt;/span&gt;&lt;/h3&gt;&lt;div&gt;&lt;span style=&quot;color: rgb(0, 0, 0); background-color: initial;&quot;&gt;save()&lt;/span&gt;&lt;/div&gt;&lt;div&gt;&lt;span style=&quot;color: rgb(0, 0, 0); background-color: initial;&quot;&gt;findAll()&lt;/span&gt;&lt;/div&gt;&lt;div&gt;&lt;span style=&quot;color: rgb(0, 0, 0); background-color: initial;&quot;&gt;findById()&lt;/span&gt;&lt;/div&gt;&lt;div&gt;&lt;span style=&quot;color: rgb(0, 0, 0); background-color: initial;&quot;&gt;...&lt;/span&gt;&lt;/div&gt;&lt;font color=&quot;#000000&quot;&gt;&lt;div style=&quot;text-align: left;&quot;&gt;&lt;br&gt;&lt;/div&gt;&lt;/font&gt;" style="rounded=0;whiteSpace=wrap;html=1;fillColor=none;strokeColor=#000000;" parent="1" vertex="1">
          <mxGeometry x="570" y="-80" width="110" height="440" as="geometry" />
        </mxCell>
        <mxCell id="DPTyqg8GNXkZNVYLNUWX-9" value="&lt;h3 style=&quot;text-align: left;&quot;&gt;&lt;span style=&quot;color: rgb(0, 0, 0); background-color: initial;&quot;&gt;@Controller&lt;/span&gt;&lt;/h3&gt;&lt;p style=&quot;text-align: left;&quot;&gt;&lt;span style=&quot;color: rgb(0, 0, 0); background-color: initial;&quot;&gt;@QueryMapping&lt;br&gt;&lt;/span&gt;&lt;span style=&quot;background-color: initial; color: rgb(0, 0, 0);&quot;&gt;@MutationMapping&lt;/span&gt;&lt;/p&gt;&lt;div style=&quot;text-align: left;&quot;&gt;&lt;br&gt;&lt;/div&gt;" style="rounded=0;whiteSpace=wrap;html=1;fillColor=none;strokeColor=#000000;" parent="1" vertex="1">
          <mxGeometry x="370" y="-80" width="110" height="440" as="geometry" />
        </mxCell>
        <mxCell id="DPTyqg8GNXkZNVYLNUWX-11" value="&lt;h3 style=&quot;text-align: left;&quot;&gt;&lt;span style=&quot;color: rgb(0, 0, 0); background-color: initial;&quot;&gt;Client Side&lt;/span&gt;&lt;/h3&gt;&lt;font color=&quot;#000000&quot;&gt;&lt;div style=&quot;text-align: left;&quot;&gt;Mobile&lt;/div&gt;&lt;div style=&quot;text-align: left;&quot;&gt;Browser&lt;/div&gt;&lt;div style=&quot;text-align: left;&quot;&gt;PC&lt;/div&gt;&lt;div style=&quot;text-align: left;&quot;&gt;Application&lt;/div&gt;&lt;/font&gt;" style="rounded=0;whiteSpace=wrap;html=1;fillColor=none;strokeColor=#000000;" parent="1" vertex="1">
          <mxGeometry x="-330" y="-80" width="80" height="440" as="geometry" />
        </mxCell>
        <mxCell id="DPTyqg8GNXkZNVYLNUWX-13" value="" style="endArrow=classic;html=1;rounded=0;exitX=1.017;exitY=0.204;exitDx=0;exitDy=0;exitPerimeter=0;entryX=-0.007;entryY=0.449;entryDx=0;entryDy=0;entryPerimeter=0;strokeColor=#000000;" parent="1" source="DPTyqg8GNXkZNVYLNUWX-11" target="DPTyqg8GNXkZNVYLNUWX-2" edge="1">
          <mxGeometry width="50" height="50" relative="1" as="geometry">
            <mxPoint x="-190" y="60" as="sourcePoint" />
            <mxPoint x="-140" y="10" as="targetPoint" />
          </mxGeometry>
        </mxCell>
        <mxCell id="DPTyqg8GNXkZNVYLNUWX-17" value="" style="endArrow=classic;html=1;rounded=0;exitX=1.017;exitY=0.204;exitDx=0;exitDy=0;exitPerimeter=0;entryX=-0.007;entryY=0.449;entryDx=0;entryDy=0;entryPerimeter=0;strokeColor=#000000;" parent="1" edge="1">
          <mxGeometry width="50" height="50" relative="1" as="geometry">
            <mxPoint x="-79" y="4.869999999999998" as="sourcePoint" />
            <mxPoint x="-11" y="4.869999999999998" as="targetPoint" />
          </mxGeometry>
        </mxCell>
        <mxCell id="DPTyqg8GNXkZNVYLNUWX-18" value="Authorize&lt;br&gt;user" style="text;html=1;align=center;verticalAlign=middle;resizable=0;points=[];autosize=1;strokeColor=none;fillColor=none;" parent="1" vertex="1">
          <mxGeometry x="-80" y="-40.13" width="70" height="40" as="geometry" />
        </mxCell>
        <mxCell id="DPTyqg8GNXkZNVYLNUWX-19" value="" style="endArrow=classic;html=1;rounded=0;exitX=1.017;exitY=0.204;exitDx=0;exitDy=0;exitPerimeter=0;strokeColor=#000000;" parent="1" edge="1">
          <mxGeometry width="50" height="50" relative="1" as="geometry">
            <mxPoint x="111" y="10" as="sourcePoint" />
            <mxPoint x="200" y="10" as="targetPoint" />
          </mxGeometry>
        </mxCell>
        <mxCell id="DPTyqg8GNXkZNVYLNUWX-20" value="Request Body" style="text;html=1;align=center;verticalAlign=middle;resizable=0;points=[];autosize=1;strokeColor=none;fillColor=none;" parent="1" vertex="1">
          <mxGeometry x="110" y="-30" width="100" height="30" as="geometry" />
        </mxCell>
        <mxCell id="DPTyqg8GNXkZNVYLNUWX-21" value="JWT" style="text;html=1;align=center;verticalAlign=middle;resizable=0;points=[];autosize=1;strokeColor=none;fillColor=none;" parent="1" vertex="1">
          <mxGeometry x="-235" y="-30" width="50" height="30" as="geometry" />
        </mxCell>
        <mxCell id="DPTyqg8GNXkZNVYLNUWX-22" value="" style="endArrow=classic;html=1;rounded=0;exitX=1.017;exitY=0.204;exitDx=0;exitDy=0;exitPerimeter=0;strokeColor=#000000;" parent="1" edge="1">
          <mxGeometry width="50" height="50" relative="1" as="geometry">
            <mxPoint x="281" y="10" as="sourcePoint" />
            <mxPoint x="370" y="10" as="targetPoint" />
          </mxGeometry>
        </mxCell>
        <mxCell id="DPTyqg8GNXkZNVYLNUWX-24" value="" style="endArrow=classic;html=1;rounded=0;exitX=1.017;exitY=0.204;exitDx=0;exitDy=0;exitPerimeter=0;strokeColor=#000000;" parent="1" edge="1">
          <mxGeometry width="50" height="50" relative="1" as="geometry">
            <mxPoint x="480" y="10" as="sourcePoint" />
            <mxPoint x="569" y="10" as="targetPoint" />
          </mxGeometry>
        </mxCell>
        <mxCell id="DPTyqg8GNXkZNVYLNUWX-25" value="" style="endArrow=classic;html=1;rounded=0;exitX=1.017;exitY=0.204;exitDx=0;exitDy=0;exitPerimeter=0;strokeColor=#000000;" parent="1" edge="1">
          <mxGeometry width="50" height="50" relative="1" as="geometry">
            <mxPoint x="680" y="10" as="sourcePoint" />
            <mxPoint x="769" y="10" as="targetPoint" />
          </mxGeometry>
        </mxCell>
        <mxCell id="DPTyqg8GNXkZNVYLNUWX-26" value="" style="endArrow=classic;html=1;rounded=0;strokeColor=#000000;entryX=1;entryY=0.636;entryDx=0;entryDy=0;entryPerimeter=0;exitX=0;exitY=0.636;exitDx=0;exitDy=0;exitPerimeter=0;" parent="1" source="DPTyqg8GNXkZNVYLNUWX-7" target="DPTyqg8GNXkZNVYLNUWX-8" edge="1">
          <mxGeometry width="50" height="50" relative="1" as="geometry">
            <mxPoint x="740" y="200" as="sourcePoint" />
            <mxPoint x="700" y="200" as="targetPoint" />
          </mxGeometry>
        </mxCell>
        <mxCell id="DPTyqg8GNXkZNVYLNUWX-27" value="" style="endArrow=classic;html=1;rounded=0;strokeColor=#000000;entryX=1;entryY=0.636;entryDx=0;entryDy=0;entryPerimeter=0;exitX=0;exitY=0.636;exitDx=0;exitDy=0;exitPerimeter=0;" parent="1" edge="1">
          <mxGeometry width="50" height="50" relative="1" as="geometry">
            <mxPoint x="570" y="200" as="sourcePoint" />
            <mxPoint x="480" y="200" as="targetPoint" />
          </mxGeometry>
        </mxCell>
        <mxCell id="DPTyqg8GNXkZNVYLNUWX-28" value="" style="endArrow=classic;html=1;rounded=0;strokeColor=#000000;entryX=1;entryY=0.636;entryDx=0;entryDy=0;entryPerimeter=0;exitX=0;exitY=0.636;exitDx=0;exitDy=0;exitPerimeter=0;" parent="1" edge="1">
          <mxGeometry width="50" height="50" relative="1" as="geometry">
            <mxPoint x="370" y="200" as="sourcePoint" />
            <mxPoint x="280" y="200" as="targetPoint" />
          </mxGeometry>
        </mxCell>
        <mxCell id="DPTyqg8GNXkZNVYLNUWX-29" value="" style="endArrow=classic;html=1;rounded=0;strokeColor=#000000;exitX=0;exitY=0.636;exitDx=0;exitDy=0;exitPerimeter=0;entryX=1;entryY=0.636;entryDx=0;entryDy=0;entryPerimeter=0;" parent="1" target="DPTyqg8GNXkZNVYLNUWX-11" edge="1">
          <mxGeometry width="50" height="50" relative="1" as="geometry">
            <mxPoint x="200" y="200" as="sourcePoint" />
            <mxPoint x="-240" y="200" as="targetPoint" />
          </mxGeometry>
        </mxCell>
        <mxCell id="_iwmSZZSKeagLIigb6Q_-1" value="&lt;br&gt;&lt;br&gt;&lt;br&gt;" style="rounded=1;whiteSpace=wrap;html=1;fillColor=none;arcSize=3;labelPosition=center;verticalLabelPosition=top;align=center;verticalAlign=bottom;" parent="1" vertex="1">
          <mxGeometry x="-230" y="-170" width="970" height="600" as="geometry" />
        </mxCell>
        <mxCell id="_iwmSZZSKeagLIigb6Q_-2" value="&lt;h1&gt;Springboot&lt;/h1&gt;" style="text;html=1;align=center;verticalAlign=middle;resizable=0;points=[];autosize=1;strokeColor=none;fillColor=none;" parent="1" vertex="1">
          <mxGeometry x="165" y="-170" width="150" height="70" as="geometry" />
        </mxCell>
      </root>
    </mxGraphModel>
  </diagram>
  <diagram id="bBE1gxuxwi4WJVZHz1Iy" name="客户端项目层次结构">
    <mxGraphModel dx="1426" dy="1143" grid="1" gridSize="10" guides="0" tooltips="1" connect="1" arrows="1" fold="1" page="0" pageScale="1" pageWidth="827" pageHeight="1169" math="0" shadow="0">
      <root>
        <mxCell id="0" />
        <mxCell id="1" parent="0" />
        <mxCell id="ol-O9nUCIhC_gthoGMkN-2" value="&lt;h1&gt;Angular Framework&lt;/h1&gt;" style="text;html=1;align=center;verticalAlign=middle;resizable=0;points=[];autosize=1;strokeColor=none;fillColor=none;" parent="1" vertex="1">
          <mxGeometry x="-30" y="-170" width="250" height="70" as="geometry" />
        </mxCell>
        <mxCell id="ol-O9nUCIhC_gthoGMkN-1" value="" style="rounded=1;whiteSpace=wrap;html=1;fillColor=none;arcSize=2;" parent="1" vertex="1">
          <mxGeometry x="-280" y="-160" width="740" height="420" as="geometry" />
        </mxCell>
        <mxCell id="ol-O9nUCIhC_gthoGMkN-6" value="&lt;h3 style=&quot;text-align: left;&quot;&gt;&lt;span style=&quot;color: rgb(0, 0, 0); background-color: initial;&quot;&gt;Component&lt;/span&gt;&lt;/h3&gt;" style="rounded=0;whiteSpace=wrap;html=1;fillColor=none;strokeColor=#000000;labelPosition=center;verticalLabelPosition=middle;align=center;verticalAlign=top;" parent="1" vertex="1">
          <mxGeometry x="-260" y="50" width="500" height="190" as="geometry" />
        </mxCell>
        <mxCell id="ol-O9nUCIhC_gthoGMkN-11" value="&lt;h3 style=&quot;text-align: left;&quot;&gt;&lt;span style=&quot;color: rgb(0, 0, 0); background-color: initial;&quot;&gt;Angular Material&lt;/span&gt;&lt;/h3&gt;" style="rounded=0;whiteSpace=wrap;html=1;fillColor=none;strokeColor=#000000;verticalAlign=top;" parent="1" vertex="1">
          <mxGeometry x="-250" y="90" width="480" height="130" as="geometry" />
        </mxCell>
        <mxCell id="B2XUss0vIrGObIDxWo1x-1" value="&lt;h3 style=&quot;text-align: left;&quot;&gt;&lt;span style=&quot;color: rgb(0, 0, 0); background-color: initial;&quot;&gt;AuthGuard&lt;/span&gt;&lt;/h3&gt;&lt;div&gt;&lt;span style=&quot;color: rgb(0, 0, 0); background-color: initial;&quot;&gt;isAllowedAccess()&lt;/span&gt;&lt;/div&gt;" style="rounded=0;whiteSpace=wrap;html=1;fillColor=none;strokeColor=#000000;" parent="1" vertex="1">
          <mxGeometry x="-260" y="-110" width="700" height="70" as="geometry" />
        </mxCell>
        <mxCell id="ol-O9nUCIhC_gthoGMkN-3" value="&lt;h3 style=&quot;&quot;&gt;&lt;span style=&quot;background-color: initial; font-size: 14.04px;&quot;&gt;User&lt;/span&gt;&lt;/h3&gt;&lt;div&gt;&lt;span style=&quot;background-color: initial; font-size: 14.04px;&quot;&gt;GET HTTP&lt;/span&gt;&lt;/div&gt;&lt;div&gt;&lt;span style=&quot;background-color: initial; font-size: 14.04px;&quot;&gt;url: &quot;/user-profile&lt;/span&gt;&lt;/div&gt;&lt;div&gt;&lt;div style=&quot;border-color: var(--border-color);&quot;&gt;...&lt;br class=&quot;Apple-interchange-newline&quot;&gt;GET HTTP&lt;/div&gt;&lt;div style=&quot;border-color: var(--border-color);&quot;&gt;&lt;span style=&quot;border-color: var(--border-color); background-color: initial; font-size: 14.04px;&quot;&gt;url: &quot;/login&lt;/span&gt;&lt;/div&gt;&lt;/div&gt;" style="rounded=0;whiteSpace=wrap;html=1;fillColor=none;strokeColor=#000000;align=left;" parent="1" vertex="1">
          <mxGeometry x="30" y="-370" width="115" height="150" as="geometry" />
        </mxCell>
        <mxCell id="ol-O9nUCIhC_gthoGMkN-4" value="&lt;h3 style=&quot;text-align: left;&quot;&gt;&lt;span style=&quot;color: rgb(0, 0, 0); background-color: initial;&quot;&gt;Router&lt;/span&gt;&lt;/h3&gt;" style="rounded=0;whiteSpace=wrap;html=1;fillColor=none;strokeColor=#000000;" parent="1" vertex="1">
          <mxGeometry x="-260" y="-10" width="700" height="30" as="geometry" />
        </mxCell>
        <mxCell id="ol-O9nUCIhC_gthoGMkN-5" value="&lt;h3 style=&quot;text-align: left;&quot;&gt;&lt;span style=&quot;color: rgb(0, 0, 0); background-color: initial;&quot;&gt;Template&lt;/span&gt;&lt;/h3&gt;" style="rounded=0;whiteSpace=wrap;html=1;fillColor=none;strokeColor=#000000;" parent="1" vertex="1">
          <mxGeometry x="-235" y="137.5" width="130" height="65" as="geometry" />
        </mxCell>
        <mxCell id="ol-O9nUCIhC_gthoGMkN-7" value="&lt;h3 style=&quot;text-align: left;&quot;&gt;&lt;span style=&quot;color: rgb(0, 0, 0); background-color: initial;&quot;&gt;Service&lt;/span&gt;&lt;/h3&gt;" style="rounded=0;whiteSpace=wrap;html=1;fillColor=none;strokeColor=#000000;" parent="1" vertex="1">
          <mxGeometry x="260" y="50" width="180" height="190" as="geometry" />
        </mxCell>
        <mxCell id="ol-O9nUCIhC_gthoGMkN-9" value="&lt;h3 style=&quot;text-align: left;&quot;&gt;&lt;span style=&quot;color: rgb(0, 0, 0); background-color: initial;&quot;&gt;Styles&lt;/span&gt;&lt;/h3&gt;" style="rounded=0;whiteSpace=wrap;html=1;fillColor=none;strokeColor=#000000;verticalAlign=middle;" parent="1" vertex="1">
          <mxGeometry x="-75" y="137.5" width="130" height="65" as="geometry" />
        </mxCell>
        <mxCell id="ol-O9nUCIhC_gthoGMkN-10" value="&lt;h3 style=&quot;text-align: left;&quot;&gt;&lt;span style=&quot;color: rgb(0, 0, 0); background-color: initial;&quot;&gt;Selector&lt;/span&gt;&lt;/h3&gt;" style="rounded=0;whiteSpace=wrap;html=1;fillColor=none;strokeColor=#000000;" parent="1" vertex="1">
          <mxGeometry x="85" y="137.5" width="130" height="65" as="geometry" />
        </mxCell>
        <mxCell id="ol-O9nUCIhC_gthoGMkN-12" value="" style="endArrow=classic;html=1;rounded=0;entryX=0.371;entryY=0.016;entryDx=0;entryDy=0;entryPerimeter=0;" parent="1" target="ol-O9nUCIhC_gthoGMkN-4" edge="1">
          <mxGeometry width="50" height="50" relative="1" as="geometry">
            <mxPoint y="-40" as="sourcePoint" />
            <mxPoint y="-20" as="targetPoint" />
          </mxGeometry>
        </mxCell>
        <mxCell id="ol-O9nUCIhC_gthoGMkN-13" value="" style="endArrow=classic;html=1;rounded=0;entryX=0.371;entryY=0.016;entryDx=0;entryDy=0;entryPerimeter=0;" parent="1" edge="1">
          <mxGeometry width="50" height="50" relative="1" as="geometry">
            <mxPoint y="20" as="sourcePoint" />
            <mxPoint y="50" as="targetPoint" />
          </mxGeometry>
        </mxCell>
        <mxCell id="ol-O9nUCIhC_gthoGMkN-14" value="" style="endArrow=classic;html=1;rounded=0;entryX=0;entryY=0.263;entryDx=0;entryDy=0;entryPerimeter=0;" parent="1" target="ol-O9nUCIhC_gthoGMkN-7" edge="1">
          <mxGeometry width="50" height="50" relative="1" as="geometry">
            <mxPoint x="240" y="100" as="sourcePoint" />
            <mxPoint x="250" y="100" as="targetPoint" />
          </mxGeometry>
        </mxCell>
        <mxCell id="ol-O9nUCIhC_gthoGMkN-15" value="" style="endArrow=none;html=1;rounded=0;entryX=0;entryY=0.263;entryDx=0;entryDy=0;entryPerimeter=0;startArrow=classic;startFill=1;endFill=0;" parent="1" edge="1">
          <mxGeometry width="50" height="50" relative="1" as="geometry">
            <mxPoint x="240" y="130" as="sourcePoint" />
            <mxPoint x="260" y="130" as="targetPoint" />
          </mxGeometry>
        </mxCell>
        <mxCell id="ol-O9nUCIhC_gthoGMkN-16" value="" style="endArrow=none;html=1;rounded=0;entryX=0.371;entryY=0.016;entryDx=0;entryDy=0;entryPerimeter=0;startArrow=classic;startFill=1;endFill=0;" parent="1" edge="1">
          <mxGeometry width="50" height="50" relative="1" as="geometry">
            <mxPoint x="80" y="20" as="sourcePoint" />
            <mxPoint x="80" y="50" as="targetPoint" />
          </mxGeometry>
        </mxCell>
        <mxCell id="ol-O9nUCIhC_gthoGMkN-17" value="" style="endArrow=none;html=1;rounded=0;entryX=0.371;entryY=0.016;entryDx=0;entryDy=0;entryPerimeter=0;endFill=0;startArrow=classic;startFill=1;" parent="1" edge="1">
          <mxGeometry width="50" height="50" relative="1" as="geometry">
            <mxPoint x="80" y="-40" as="sourcePoint" />
            <mxPoint x="80" y="-10" as="targetPoint" />
          </mxGeometry>
        </mxCell>
        <mxCell id="ol-O9nUCIhC_gthoGMkN-18" value="" style="endArrow=none;html=1;rounded=0;exitX=0.459;exitY=-0.003;exitDx=0;exitDy=0;exitPerimeter=0;entryX=0.264;entryY=1.004;entryDx=0;entryDy=0;entryPerimeter=0;endFill=0;startArrow=classic;startFill=1;" parent="1" source="ol-O9nUCIhC_gthoGMkN-1" target="ol-O9nUCIhC_gthoGMkN-3" edge="1">
          <mxGeometry width="50" height="50" relative="1" as="geometry">
            <mxPoint x="60" y="-170" as="sourcePoint" />
            <mxPoint x="60" y="-210" as="targetPoint" />
          </mxGeometry>
        </mxCell>
        <mxCell id="ol-O9nUCIhC_gthoGMkN-19" value="" style="endArrow=classic;html=1;rounded=0;exitX=0.527;exitY=-0.002;exitDx=0;exitDy=0;exitPerimeter=0;entryX=0.264;entryY=1.004;entryDx=0;entryDy=0;entryPerimeter=0;endFill=1;startArrow=none;startFill=0;" parent="1" source="ol-O9nUCIhC_gthoGMkN-1" edge="1">
          <mxGeometry width="50" height="50" relative="1" as="geometry">
            <mxPoint x="110" y="-162" as="sourcePoint" />
            <mxPoint x="110" y="-220" as="targetPoint" />
          </mxGeometry>
        </mxCell>
      </root>
    </mxGraphModel>
  </diagram>
  <diagram id="A2f7Y7V40PUAEUo5lAra" name="ER Diagram">
    <mxGraphModel dx="1607" dy="1674" grid="1" gridSize="10" guides="1" tooltips="1" connect="1" arrows="1" fold="1" page="0" pageScale="1" pageWidth="827" pageHeight="1169" math="0" shadow="0">
      <root>
        <mxCell id="0" />
        <mxCell id="1" parent="0" />
        <mxCell id="UImgxeS5ZiEGcot_-h3Z-1" value="User" style="shape=table;startSize=30;container=1;collapsible=1;childLayout=tableLayout;fixedRows=1;rowLines=0;fontStyle=1;align=center;resizeLast=1;html=1;rounded=0;labelBackgroundColor=none;" parent="1" vertex="1">
          <mxGeometry x="-210" y="650" width="330" height="90" as="geometry" />
        </mxCell>
        <mxCell id="UImgxeS5ZiEGcot_-h3Z-2" value="" style="shape=tableRow;horizontal=0;startSize=0;swimlaneHead=0;swimlaneBody=0;fillColor=none;collapsible=0;dropTarget=0;points=[[0,0.5],[1,0.5]];portConstraint=eastwest;top=0;left=0;right=0;bottom=1;rounded=0;labelBackgroundColor=none;" parent="UImgxeS5ZiEGcot_-h3Z-1" vertex="1">
          <mxGeometry y="30" width="330" height="30" as="geometry" />
        </mxCell>
        <mxCell id="UImgxeS5ZiEGcot_-h3Z-3" value="PK" style="shape=partialRectangle;connectable=0;fillColor=none;top=0;left=0;bottom=0;right=0;fontStyle=1;overflow=hidden;whiteSpace=wrap;html=1;rounded=0;labelBackgroundColor=none;" parent="UImgxeS5ZiEGcot_-h3Z-2" vertex="1">
          <mxGeometry width="30" height="30" as="geometry">
            <mxRectangle width="30" height="30" as="alternateBounds" />
          </mxGeometry>
        </mxCell>
        <mxCell id="UImgxeS5ZiEGcot_-h3Z-4" value="username" style="shape=partialRectangle;connectable=0;fillColor=none;top=0;left=0;bottom=0;right=0;align=left;spacingLeft=6;fontStyle=5;overflow=hidden;whiteSpace=wrap;html=1;rounded=0;labelBackgroundColor=none;" parent="UImgxeS5ZiEGcot_-h3Z-2" vertex="1">
          <mxGeometry x="30" width="150" height="30" as="geometry">
            <mxRectangle width="150" height="30" as="alternateBounds" />
          </mxGeometry>
        </mxCell>
        <mxCell id="UImgxeS5ZiEGcot_-h3Z-190" value="String" style="shape=partialRectangle;connectable=0;fillColor=none;top=0;left=0;bottom=0;right=0;align=left;spacingLeft=6;fontStyle=5;overflow=hidden;whiteSpace=wrap;html=1;rounded=0;labelBackgroundColor=none;" parent="UImgxeS5ZiEGcot_-h3Z-2" vertex="1">
          <mxGeometry x="180" width="150" height="30" as="geometry">
            <mxRectangle width="150" height="30" as="alternateBounds" />
          </mxGeometry>
        </mxCell>
        <mxCell id="UImgxeS5ZiEGcot_-h3Z-5" value="" style="shape=tableRow;horizontal=0;startSize=0;swimlaneHead=0;swimlaneBody=0;fillColor=none;collapsible=0;dropTarget=0;points=[[0,0.5],[1,0.5]];portConstraint=eastwest;top=0;left=0;right=0;bottom=0;rounded=0;labelBackgroundColor=none;" parent="UImgxeS5ZiEGcot_-h3Z-1" vertex="1">
          <mxGeometry y="60" width="330" height="30" as="geometry" />
        </mxCell>
        <mxCell id="UImgxeS5ZiEGcot_-h3Z-6" value="UK" style="shape=partialRectangle;connectable=0;fillColor=none;top=0;left=0;bottom=0;right=0;editable=1;overflow=hidden;whiteSpace=wrap;html=1;rounded=0;labelBackgroundColor=none;" parent="UImgxeS5ZiEGcot_-h3Z-5" vertex="1">
          <mxGeometry width="30" height="30" as="geometry">
            <mxRectangle width="30" height="30" as="alternateBounds" />
          </mxGeometry>
        </mxCell>
        <mxCell id="UImgxeS5ZiEGcot_-h3Z-7" value="username" style="shape=partialRectangle;connectable=0;fillColor=none;top=0;left=0;bottom=0;right=0;align=left;spacingLeft=6;overflow=hidden;whiteSpace=wrap;html=1;rounded=0;labelBackgroundColor=none;" parent="UImgxeS5ZiEGcot_-h3Z-5" vertex="1">
          <mxGeometry x="30" width="150" height="30" as="geometry">
            <mxRectangle width="150" height="30" as="alternateBounds" />
          </mxGeometry>
        </mxCell>
        <mxCell id="UImgxeS5ZiEGcot_-h3Z-191" value="String" style="shape=partialRectangle;connectable=0;fillColor=none;top=0;left=0;bottom=0;right=0;align=left;spacingLeft=6;overflow=hidden;whiteSpace=wrap;html=1;rounded=0;labelBackgroundColor=none;" parent="UImgxeS5ZiEGcot_-h3Z-5" vertex="1">
          <mxGeometry x="180" width="150" height="30" as="geometry">
            <mxRectangle width="150" height="30" as="alternateBounds" />
          </mxGeometry>
        </mxCell>
        <mxCell id="UImgxeS5ZiEGcot_-h3Z-60" value="Iot" style="shape=table;startSize=30;container=1;collapsible=1;childLayout=tableLayout;fixedRows=1;rowLines=0;fontStyle=1;align=center;resizeLast=1;html=1;rounded=0;labelBackgroundColor=none;" parent="1" vertex="1">
          <mxGeometry x="210" y="760" width="330" height="180" as="geometry" />
        </mxCell>
        <mxCell id="UImgxeS5ZiEGcot_-h3Z-61" value="" style="shape=tableRow;horizontal=0;startSize=0;swimlaneHead=0;swimlaneBody=0;fillColor=none;collapsible=0;dropTarget=0;points=[[0,0.5],[1,0.5]];portConstraint=eastwest;top=0;left=0;right=0;bottom=1;rounded=0;labelBackgroundColor=none;" parent="UImgxeS5ZiEGcot_-h3Z-60" vertex="1">
          <mxGeometry y="30" width="330" height="30" as="geometry" />
        </mxCell>
        <mxCell id="UImgxeS5ZiEGcot_-h3Z-62" value="PK" style="shape=partialRectangle;connectable=0;fillColor=none;top=0;left=0;bottom=0;right=0;fontStyle=1;overflow=hidden;whiteSpace=wrap;html=1;rounded=0;labelBackgroundColor=none;" parent="UImgxeS5ZiEGcot_-h3Z-61" vertex="1">
          <mxGeometry width="30" height="30" as="geometry">
            <mxRectangle width="30" height="30" as="alternateBounds" />
          </mxGeometry>
        </mxCell>
        <mxCell id="UImgxeS5ZiEGcot_-h3Z-63" value="iotId" style="shape=partialRectangle;connectable=0;fillColor=none;top=0;left=0;bottom=0;right=0;align=left;spacingLeft=6;fontStyle=5;overflow=hidden;whiteSpace=wrap;html=1;rounded=0;labelBackgroundColor=none;" parent="UImgxeS5ZiEGcot_-h3Z-61" vertex="1">
          <mxGeometry x="30" width="150" height="30" as="geometry">
            <mxRectangle width="150" height="30" as="alternateBounds" />
          </mxGeometry>
        </mxCell>
        <mxCell id="UImgxeS5ZiEGcot_-h3Z-222" value="String" style="shape=partialRectangle;connectable=0;fillColor=none;top=0;left=0;bottom=0;right=0;align=left;spacingLeft=6;fontStyle=5;overflow=hidden;whiteSpace=wrap;html=1;rounded=0;labelBackgroundColor=none;" parent="UImgxeS5ZiEGcot_-h3Z-61" vertex="1">
          <mxGeometry x="180" width="150" height="30" as="geometry">
            <mxRectangle width="150" height="30" as="alternateBounds" />
          </mxGeometry>
        </mxCell>
        <mxCell id="UImgxeS5ZiEGcot_-h3Z-67" value="" style="shape=tableRow;horizontal=0;startSize=0;swimlaneHead=0;swimlaneBody=0;fillColor=none;collapsible=0;dropTarget=0;points=[[0,0.5],[1,0.5]];portConstraint=eastwest;top=0;left=0;right=0;bottom=0;rounded=0;labelBackgroundColor=none;" parent="UImgxeS5ZiEGcot_-h3Z-60" vertex="1">
          <mxGeometry y="60" width="330" height="30" as="geometry" />
        </mxCell>
        <mxCell id="UImgxeS5ZiEGcot_-h3Z-68" value="UK" style="shape=partialRectangle;connectable=0;fillColor=none;top=0;left=0;bottom=0;right=0;editable=1;overflow=hidden;whiteSpace=wrap;html=1;rounded=0;labelBackgroundColor=none;" parent="UImgxeS5ZiEGcot_-h3Z-67" vertex="1">
          <mxGeometry width="30" height="30" as="geometry">
            <mxRectangle width="30" height="30" as="alternateBounds" />
          </mxGeometry>
        </mxCell>
        <mxCell id="UImgxeS5ZiEGcot_-h3Z-69" value="name" style="shape=partialRectangle;connectable=0;fillColor=none;top=0;left=0;bottom=0;right=0;align=left;spacingLeft=6;overflow=hidden;whiteSpace=wrap;html=1;rounded=0;labelBackgroundColor=none;" parent="UImgxeS5ZiEGcot_-h3Z-67" vertex="1">
          <mxGeometry x="30" width="150" height="30" as="geometry">
            <mxRectangle width="150" height="30" as="alternateBounds" />
          </mxGeometry>
        </mxCell>
        <mxCell id="UImgxeS5ZiEGcot_-h3Z-223" value="String" style="shape=partialRectangle;connectable=0;fillColor=none;top=0;left=0;bottom=0;right=0;align=left;spacingLeft=6;overflow=hidden;whiteSpace=wrap;html=1;rounded=0;labelBackgroundColor=none;" parent="UImgxeS5ZiEGcot_-h3Z-67" vertex="1">
          <mxGeometry x="180" width="150" height="30" as="geometry">
            <mxRectangle width="150" height="30" as="alternateBounds" />
          </mxGeometry>
        </mxCell>
        <mxCell id="UImgxeS5ZiEGcot_-h3Z-167" style="shape=tableRow;horizontal=0;startSize=0;swimlaneHead=0;swimlaneBody=0;fillColor=none;collapsible=0;dropTarget=0;points=[[0,0.5],[1,0.5]];portConstraint=eastwest;top=0;left=0;right=0;bottom=0;rounded=0;labelBackgroundColor=none;" parent="UImgxeS5ZiEGcot_-h3Z-60" vertex="1">
          <mxGeometry y="90" width="330" height="30" as="geometry" />
        </mxCell>
        <mxCell id="UImgxeS5ZiEGcot_-h3Z-168" value="UK" style="shape=partialRectangle;connectable=0;fillColor=none;top=0;left=0;bottom=0;right=0;editable=1;overflow=hidden;whiteSpace=wrap;html=1;rounded=0;labelBackgroundColor=none;" parent="UImgxeS5ZiEGcot_-h3Z-167" vertex="1">
          <mxGeometry width="30" height="30" as="geometry">
            <mxRectangle width="30" height="30" as="alternateBounds" />
          </mxGeometry>
        </mxCell>
        <mxCell id="UImgxeS5ZiEGcot_-h3Z-169" value="info" style="shape=partialRectangle;connectable=0;fillColor=none;top=0;left=0;bottom=0;right=0;align=left;spacingLeft=6;overflow=hidden;whiteSpace=wrap;html=1;rounded=0;labelBackgroundColor=none;" parent="UImgxeS5ZiEGcot_-h3Z-167" vertex="1">
          <mxGeometry x="30" width="150" height="30" as="geometry">
            <mxRectangle width="150" height="30" as="alternateBounds" />
          </mxGeometry>
        </mxCell>
        <mxCell id="UImgxeS5ZiEGcot_-h3Z-226" value="String" style="shape=partialRectangle;connectable=0;fillColor=none;top=0;left=0;bottom=0;right=0;align=left;spacingLeft=6;overflow=hidden;whiteSpace=wrap;html=1;rounded=0;labelBackgroundColor=none;" parent="UImgxeS5ZiEGcot_-h3Z-167" vertex="1">
          <mxGeometry x="180" width="150" height="30" as="geometry">
            <mxRectangle width="150" height="30" as="alternateBounds" />
          </mxGeometry>
        </mxCell>
        <mxCell id="UImgxeS5ZiEGcot_-h3Z-70" value="" style="shape=tableRow;horizontal=0;startSize=0;swimlaneHead=0;swimlaneBody=0;fillColor=none;collapsible=0;dropTarget=0;points=[[0,0.5],[1,0.5]];portConstraint=eastwest;top=0;left=0;right=0;bottom=0;rounded=0;labelBackgroundColor=none;" parent="UImgxeS5ZiEGcot_-h3Z-60" vertex="1">
          <mxGeometry y="120" width="330" height="30" as="geometry" />
        </mxCell>
        <mxCell id="UImgxeS5ZiEGcot_-h3Z-71" value="FK" style="shape=partialRectangle;connectable=0;fillColor=none;top=0;left=0;bottom=0;right=0;editable=1;overflow=hidden;whiteSpace=wrap;html=1;rounded=0;labelBackgroundColor=none;" parent="UImgxeS5ZiEGcot_-h3Z-70" vertex="1">
          <mxGeometry width="30" height="30" as="geometry">
            <mxRectangle width="30" height="30" as="alternateBounds" />
          </mxGeometry>
        </mxCell>
        <mxCell id="UImgxeS5ZiEGcot_-h3Z-72" value="categoryId" style="shape=partialRectangle;connectable=0;fillColor=none;top=0;left=0;bottom=0;right=0;align=left;spacingLeft=6;overflow=hidden;whiteSpace=wrap;html=1;rounded=0;labelBackgroundColor=none;" parent="UImgxeS5ZiEGcot_-h3Z-70" vertex="1">
          <mxGeometry x="30" width="150" height="30" as="geometry">
            <mxRectangle width="150" height="30" as="alternateBounds" />
          </mxGeometry>
        </mxCell>
        <mxCell id="UImgxeS5ZiEGcot_-h3Z-227" value="" style="shape=partialRectangle;connectable=0;fillColor=none;top=0;left=0;bottom=0;right=0;align=left;spacingLeft=6;overflow=hidden;whiteSpace=wrap;html=1;rounded=0;labelBackgroundColor=none;" parent="UImgxeS5ZiEGcot_-h3Z-70" vertex="1">
          <mxGeometry x="180" width="150" height="30" as="geometry">
            <mxRectangle width="150" height="30" as="alternateBounds" />
          </mxGeometry>
        </mxCell>
        <mxCell id="UImgxeS5ZiEGcot_-h3Z-132" style="shape=tableRow;horizontal=0;startSize=0;swimlaneHead=0;swimlaneBody=0;fillColor=none;collapsible=0;dropTarget=0;points=[[0,0.5],[1,0.5]];portConstraint=eastwest;top=0;left=0;right=0;bottom=0;rounded=0;labelBackgroundColor=none;" parent="UImgxeS5ZiEGcot_-h3Z-60" vertex="1">
          <mxGeometry y="150" width="330" height="30" as="geometry" />
        </mxCell>
        <mxCell id="UImgxeS5ZiEGcot_-h3Z-133" style="shape=partialRectangle;connectable=0;fillColor=none;top=0;left=0;bottom=0;right=0;editable=1;overflow=hidden;whiteSpace=wrap;html=1;rounded=0;labelBackgroundColor=none;" parent="UImgxeS5ZiEGcot_-h3Z-132" vertex="1">
          <mxGeometry width="30" height="30" as="geometry">
            <mxRectangle width="30" height="30" as="alternateBounds" />
          </mxGeometry>
        </mxCell>
        <mxCell id="UImgxeS5ZiEGcot_-h3Z-134" value="online" style="shape=partialRectangle;connectable=0;fillColor=none;top=0;left=0;bottom=0;right=0;align=left;spacingLeft=6;overflow=hidden;whiteSpace=wrap;html=1;rounded=0;labelBackgroundColor=none;" parent="UImgxeS5ZiEGcot_-h3Z-132" vertex="1">
          <mxGeometry x="30" width="150" height="30" as="geometry">
            <mxRectangle width="150" height="30" as="alternateBounds" />
          </mxGeometry>
        </mxCell>
        <mxCell id="UImgxeS5ZiEGcot_-h3Z-228" value="Enum" style="shape=partialRectangle;connectable=0;fillColor=none;top=0;left=0;bottom=0;right=0;align=left;spacingLeft=6;overflow=hidden;whiteSpace=wrap;html=1;rounded=0;labelBackgroundColor=none;" parent="UImgxeS5ZiEGcot_-h3Z-132" vertex="1">
          <mxGeometry x="180" width="150" height="30" as="geometry">
            <mxRectangle width="150" height="30" as="alternateBounds" />
          </mxGeometry>
        </mxCell>
        <mxCell id="UImgxeS5ZiEGcot_-h3Z-86" value="Message" style="shape=table;startSize=30;container=1;collapsible=1;childLayout=tableLayout;fixedRows=1;rowLines=0;fontStyle=1;align=center;resizeLast=1;html=1;rounded=0;labelBackgroundColor=none;" parent="1" vertex="1">
          <mxGeometry x="-210" y="760" width="330" height="180" as="geometry" />
        </mxCell>
        <mxCell id="UImgxeS5ZiEGcot_-h3Z-87" value="" style="shape=tableRow;horizontal=0;startSize=0;swimlaneHead=0;swimlaneBody=0;fillColor=none;collapsible=0;dropTarget=0;points=[[0,0.5],[1,0.5]];portConstraint=eastwest;top=0;left=0;right=0;bottom=1;rounded=0;labelBackgroundColor=none;" parent="UImgxeS5ZiEGcot_-h3Z-86" vertex="1">
          <mxGeometry y="30" width="330" height="30" as="geometry" />
        </mxCell>
        <mxCell id="UImgxeS5ZiEGcot_-h3Z-88" value="PK" style="shape=partialRectangle;connectable=0;fillColor=none;top=0;left=0;bottom=0;right=0;fontStyle=1;overflow=hidden;whiteSpace=wrap;html=1;rounded=0;labelBackgroundColor=none;" parent="UImgxeS5ZiEGcot_-h3Z-87" vertex="1">
          <mxGeometry width="30" height="30" as="geometry">
            <mxRectangle width="30" height="30" as="alternateBounds" />
          </mxGeometry>
        </mxCell>
        <mxCell id="UImgxeS5ZiEGcot_-h3Z-89" value="id" style="shape=partialRectangle;connectable=0;fillColor=none;top=0;left=0;bottom=0;right=0;align=left;spacingLeft=6;fontStyle=5;overflow=hidden;whiteSpace=wrap;html=1;rounded=0;labelBackgroundColor=none;" parent="UImgxeS5ZiEGcot_-h3Z-87" vertex="1">
          <mxGeometry x="30" width="150" height="30" as="geometry">
            <mxRectangle width="150" height="30" as="alternateBounds" />
          </mxGeometry>
        </mxCell>
        <mxCell id="UImgxeS5ZiEGcot_-h3Z-211" value="Integer" style="shape=partialRectangle;connectable=0;fillColor=none;top=0;left=0;bottom=0;right=0;align=left;spacingLeft=6;fontStyle=5;overflow=hidden;whiteSpace=wrap;html=1;rounded=0;labelBackgroundColor=none;" parent="UImgxeS5ZiEGcot_-h3Z-87" vertex="1">
          <mxGeometry x="180" width="150" height="30" as="geometry">
            <mxRectangle width="150" height="30" as="alternateBounds" />
          </mxGeometry>
        </mxCell>
        <mxCell id="UImgxeS5ZiEGcot_-h3Z-90" value="" style="shape=tableRow;horizontal=0;startSize=0;swimlaneHead=0;swimlaneBody=0;fillColor=none;collapsible=0;dropTarget=0;points=[[0,0.5],[1,0.5]];portConstraint=eastwest;top=0;left=0;right=0;bottom=0;rounded=0;labelBackgroundColor=none;" parent="UImgxeS5ZiEGcot_-h3Z-86" vertex="1">
          <mxGeometry y="60" width="330" height="30" as="geometry" />
        </mxCell>
        <mxCell id="UImgxeS5ZiEGcot_-h3Z-91" value="" style="shape=partialRectangle;connectable=0;fillColor=none;top=0;left=0;bottom=0;right=0;editable=1;overflow=hidden;whiteSpace=wrap;html=1;rounded=0;labelBackgroundColor=none;" parent="UImgxeS5ZiEGcot_-h3Z-90" vertex="1">
          <mxGeometry width="30" height="30" as="geometry">
            <mxRectangle width="30" height="30" as="alternateBounds" />
          </mxGeometry>
        </mxCell>
        <mxCell id="UImgxeS5ZiEGcot_-h3Z-92" value="time" style="shape=partialRectangle;connectable=0;fillColor=none;top=0;left=0;bottom=0;right=0;align=left;spacingLeft=6;overflow=hidden;whiteSpace=wrap;html=1;rounded=0;labelBackgroundColor=none;" parent="UImgxeS5ZiEGcot_-h3Z-90" vertex="1">
          <mxGeometry x="30" width="150" height="30" as="geometry">
            <mxRectangle width="150" height="30" as="alternateBounds" />
          </mxGeometry>
        </mxCell>
        <mxCell id="UImgxeS5ZiEGcot_-h3Z-212" value="Timestamp" style="shape=partialRectangle;connectable=0;fillColor=none;top=0;left=0;bottom=0;right=0;align=left;spacingLeft=6;overflow=hidden;whiteSpace=wrap;html=1;rounded=0;labelBackgroundColor=none;" parent="UImgxeS5ZiEGcot_-h3Z-90" vertex="1">
          <mxGeometry x="180" width="150" height="30" as="geometry">
            <mxRectangle width="150" height="30" as="alternateBounds" />
          </mxGeometry>
        </mxCell>
        <mxCell id="UImgxeS5ZiEGcot_-h3Z-129" style="shape=tableRow;horizontal=0;startSize=0;swimlaneHead=0;swimlaneBody=0;fillColor=none;collapsible=0;dropTarget=0;points=[[0,0.5],[1,0.5]];portConstraint=eastwest;top=0;left=0;right=0;bottom=0;rounded=0;labelBackgroundColor=none;" parent="UImgxeS5ZiEGcot_-h3Z-86" vertex="1">
          <mxGeometry y="90" width="330" height="30" as="geometry" />
        </mxCell>
        <mxCell id="UImgxeS5ZiEGcot_-h3Z-130" value="" style="shape=partialRectangle;connectable=0;fillColor=none;top=0;left=0;bottom=0;right=0;editable=1;overflow=hidden;whiteSpace=wrap;html=1;rounded=0;labelBackgroundColor=none;" parent="UImgxeS5ZiEGcot_-h3Z-129" vertex="1">
          <mxGeometry width="30" height="30" as="geometry">
            <mxRectangle width="30" height="30" as="alternateBounds" />
          </mxGeometry>
        </mxCell>
        <mxCell id="UImgxeS5ZiEGcot_-h3Z-131" value="topic" style="shape=partialRectangle;connectable=0;fillColor=none;top=0;left=0;bottom=0;right=0;align=left;spacingLeft=6;overflow=hidden;whiteSpace=wrap;html=1;rounded=0;labelBackgroundColor=none;" parent="UImgxeS5ZiEGcot_-h3Z-129" vertex="1">
          <mxGeometry x="30" width="150" height="30" as="geometry">
            <mxRectangle width="150" height="30" as="alternateBounds" />
          </mxGeometry>
        </mxCell>
        <mxCell id="UImgxeS5ZiEGcot_-h3Z-218" value="String" style="shape=partialRectangle;connectable=0;fillColor=none;top=0;left=0;bottom=0;right=0;align=left;spacingLeft=6;overflow=hidden;whiteSpace=wrap;html=1;rounded=0;labelBackgroundColor=none;" parent="UImgxeS5ZiEGcot_-h3Z-129" vertex="1">
          <mxGeometry x="180" width="150" height="30" as="geometry">
            <mxRectangle width="150" height="30" as="alternateBounds" />
          </mxGeometry>
        </mxCell>
        <mxCell id="UImgxeS5ZiEGcot_-h3Z-102" style="shape=tableRow;horizontal=0;startSize=0;swimlaneHead=0;swimlaneBody=0;fillColor=none;collapsible=0;dropTarget=0;points=[[0,0.5],[1,0.5]];portConstraint=eastwest;top=0;left=0;right=0;bottom=0;rounded=0;labelBackgroundColor=none;" parent="UImgxeS5ZiEGcot_-h3Z-86" vertex="1">
          <mxGeometry y="120" width="330" height="30" as="geometry" />
        </mxCell>
        <mxCell id="UImgxeS5ZiEGcot_-h3Z-103" style="shape=partialRectangle;connectable=0;fillColor=none;top=0;left=0;bottom=0;right=0;editable=1;overflow=hidden;whiteSpace=wrap;html=1;rounded=0;labelBackgroundColor=none;" parent="UImgxeS5ZiEGcot_-h3Z-102" vertex="1">
          <mxGeometry width="30" height="30" as="geometry">
            <mxRectangle width="30" height="30" as="alternateBounds" />
          </mxGeometry>
        </mxCell>
        <mxCell id="UImgxeS5ZiEGcot_-h3Z-104" value="data" style="shape=partialRectangle;connectable=0;fillColor=none;top=0;left=0;bottom=0;right=0;align=left;spacingLeft=6;overflow=hidden;whiteSpace=wrap;html=1;rounded=0;labelBackgroundColor=none;" parent="UImgxeS5ZiEGcot_-h3Z-102" vertex="1">
          <mxGeometry x="30" width="150" height="30" as="geometry">
            <mxRectangle width="150" height="30" as="alternateBounds" />
          </mxGeometry>
        </mxCell>
        <mxCell id="UImgxeS5ZiEGcot_-h3Z-219" value="JSON" style="shape=partialRectangle;connectable=0;fillColor=none;top=0;left=0;bottom=0;right=0;align=left;spacingLeft=6;overflow=hidden;whiteSpace=wrap;html=1;rounded=0;labelBackgroundColor=none;" parent="UImgxeS5ZiEGcot_-h3Z-102" vertex="1">
          <mxGeometry x="180" width="150" height="30" as="geometry">
            <mxRectangle width="150" height="30" as="alternateBounds" />
          </mxGeometry>
        </mxCell>
        <mxCell id="UImgxeS5ZiEGcot_-h3Z-111" style="shape=tableRow;horizontal=0;startSize=0;swimlaneHead=0;swimlaneBody=0;fillColor=none;collapsible=0;dropTarget=0;points=[[0,0.5],[1,0.5]];portConstraint=eastwest;top=0;left=0;right=0;bottom=0;rounded=0;labelBackgroundColor=none;" parent="UImgxeS5ZiEGcot_-h3Z-86" vertex="1">
          <mxGeometry y="150" width="330" height="30" as="geometry" />
        </mxCell>
        <mxCell id="UImgxeS5ZiEGcot_-h3Z-112" style="shape=partialRectangle;connectable=0;fillColor=none;top=0;left=0;bottom=0;right=0;editable=1;overflow=hidden;whiteSpace=wrap;html=1;rounded=0;labelBackgroundColor=none;" parent="UImgxeS5ZiEGcot_-h3Z-111" vertex="1">
          <mxGeometry width="30" height="30" as="geometry">
            <mxRectangle width="30" height="30" as="alternateBounds" />
          </mxGeometry>
        </mxCell>
        <mxCell id="UImgxeS5ZiEGcot_-h3Z-113" value="alert" style="shape=partialRectangle;connectable=0;fillColor=none;top=0;left=0;bottom=0;right=0;align=left;spacingLeft=6;overflow=hidden;whiteSpace=wrap;html=1;rounded=0;labelBackgroundColor=none;" parent="UImgxeS5ZiEGcot_-h3Z-111" vertex="1">
          <mxGeometry x="30" width="150" height="30" as="geometry">
            <mxRectangle width="150" height="30" as="alternateBounds" />
          </mxGeometry>
        </mxCell>
        <mxCell id="UImgxeS5ZiEGcot_-h3Z-221" value="String" style="shape=partialRectangle;connectable=0;fillColor=none;top=0;left=0;bottom=0;right=0;align=left;spacingLeft=6;overflow=hidden;whiteSpace=wrap;html=1;rounded=0;labelBackgroundColor=none;" parent="UImgxeS5ZiEGcot_-h3Z-111" vertex="1">
          <mxGeometry x="180" width="150" height="30" as="geometry">
            <mxRectangle width="150" height="30" as="alternateBounds" />
          </mxGeometry>
        </mxCell>
        <mxCell id="UImgxeS5ZiEGcot_-h3Z-232" value="Topic" style="shape=table;startSize=30;container=1;collapsible=1;childLayout=tableLayout;fixedRows=1;rowLines=0;fontStyle=1;align=center;resizeLast=1;html=1;rounded=0;labelBackgroundColor=none;" parent="1" vertex="1">
          <mxGeometry x="594" y="730" width="330" height="150" as="geometry" />
        </mxCell>
        <mxCell id="UImgxeS5ZiEGcot_-h3Z-233" value="" style="shape=tableRow;horizontal=0;startSize=0;swimlaneHead=0;swimlaneBody=0;fillColor=none;collapsible=0;dropTarget=0;points=[[0,0.5],[1,0.5]];portConstraint=eastwest;top=0;left=0;right=0;bottom=1;rounded=0;labelBackgroundColor=none;" parent="UImgxeS5ZiEGcot_-h3Z-232" vertex="1">
          <mxGeometry y="30" width="330" height="30" as="geometry" />
        </mxCell>
        <mxCell id="UImgxeS5ZiEGcot_-h3Z-234" value="PK" style="shape=partialRectangle;connectable=0;fillColor=none;top=0;left=0;bottom=0;right=0;fontStyle=1;overflow=hidden;whiteSpace=wrap;html=1;rounded=0;labelBackgroundColor=none;" parent="UImgxeS5ZiEGcot_-h3Z-233" vertex="1">
          <mxGeometry width="30" height="30" as="geometry">
            <mxRectangle width="30" height="30" as="alternateBounds" />
          </mxGeometry>
        </mxCell>
        <mxCell id="UImgxeS5ZiEGcot_-h3Z-235" value="id" style="shape=partialRectangle;connectable=0;fillColor=none;top=0;left=0;bottom=0;right=0;align=left;spacingLeft=6;fontStyle=5;overflow=hidden;whiteSpace=wrap;html=1;rounded=0;labelBackgroundColor=none;" parent="UImgxeS5ZiEGcot_-h3Z-233" vertex="1">
          <mxGeometry x="30" width="150" height="30" as="geometry">
            <mxRectangle width="150" height="30" as="alternateBounds" />
          </mxGeometry>
        </mxCell>
        <mxCell id="UImgxeS5ZiEGcot_-h3Z-246" value="Integer" style="shape=partialRectangle;connectable=0;fillColor=none;top=0;left=0;bottom=0;right=0;align=left;spacingLeft=6;fontStyle=5;overflow=hidden;whiteSpace=wrap;html=1;rounded=0;labelBackgroundColor=none;" parent="UImgxeS5ZiEGcot_-h3Z-233" vertex="1">
          <mxGeometry x="180" width="150" height="30" as="geometry">
            <mxRectangle width="150" height="30" as="alternateBounds" />
          </mxGeometry>
        </mxCell>
        <mxCell id="2gaaM60oqQoI5mj2-Xxg-15" style="shape=tableRow;horizontal=0;startSize=0;swimlaneHead=0;swimlaneBody=0;fillColor=none;collapsible=0;dropTarget=0;points=[[0,0.5],[1,0.5]];portConstraint=eastwest;top=0;left=0;right=0;bottom=1;rounded=0;labelBackgroundColor=none;" vertex="1" parent="UImgxeS5ZiEGcot_-h3Z-232">
          <mxGeometry y="60" width="330" height="30" as="geometry" />
        </mxCell>
        <mxCell id="2gaaM60oqQoI5mj2-Xxg-16" style="shape=partialRectangle;connectable=0;fillColor=none;top=0;left=0;bottom=0;right=0;fontStyle=1;overflow=hidden;whiteSpace=wrap;html=1;rounded=0;labelBackgroundColor=none;" vertex="1" parent="2gaaM60oqQoI5mj2-Xxg-15">
          <mxGeometry width="30" height="30" as="geometry">
            <mxRectangle width="30" height="30" as="alternateBounds" />
          </mxGeometry>
        </mxCell>
        <mxCell id="2gaaM60oqQoI5mj2-Xxg-17" value="iotId" style="shape=partialRectangle;connectable=0;fillColor=none;top=0;left=0;bottom=0;right=0;align=left;spacingLeft=6;fontStyle=0;overflow=hidden;whiteSpace=wrap;html=1;rounded=0;labelBackgroundColor=none;" vertex="1" parent="2gaaM60oqQoI5mj2-Xxg-15">
          <mxGeometry x="30" width="150" height="30" as="geometry">
            <mxRectangle width="150" height="30" as="alternateBounds" />
          </mxGeometry>
        </mxCell>
        <mxCell id="2gaaM60oqQoI5mj2-Xxg-18" value="&lt;span style=&quot;&quot;&gt;String&lt;/span&gt;" style="shape=partialRectangle;connectable=0;fillColor=none;top=0;left=0;bottom=0;right=0;align=left;spacingLeft=6;fontStyle=0;overflow=hidden;whiteSpace=wrap;html=1;rounded=0;labelBackgroundColor=none;" vertex="1" parent="2gaaM60oqQoI5mj2-Xxg-15">
          <mxGeometry x="180" width="150" height="30" as="geometry">
            <mxRectangle width="150" height="30" as="alternateBounds" />
          </mxGeometry>
        </mxCell>
        <mxCell id="UImgxeS5ZiEGcot_-h3Z-236" value="" style="shape=tableRow;horizontal=0;startSize=0;swimlaneHead=0;swimlaneBody=0;fillColor=none;collapsible=0;dropTarget=0;points=[[0,0.5],[1,0.5]];portConstraint=eastwest;top=0;left=0;right=0;bottom=0;rounded=0;labelBackgroundColor=none;" parent="UImgxeS5ZiEGcot_-h3Z-232" vertex="1">
          <mxGeometry y="90" width="330" height="30" as="geometry" />
        </mxCell>
        <mxCell id="UImgxeS5ZiEGcot_-h3Z-237" value="" style="shape=partialRectangle;connectable=0;fillColor=none;top=0;left=0;bottom=0;right=0;editable=1;overflow=hidden;whiteSpace=wrap;html=1;rounded=0;labelBackgroundColor=none;" parent="UImgxeS5ZiEGcot_-h3Z-236" vertex="1">
          <mxGeometry width="30" height="30" as="geometry">
            <mxRectangle width="30" height="30" as="alternateBounds" />
          </mxGeometry>
        </mxCell>
        <mxCell id="UImgxeS5ZiEGcot_-h3Z-238" value="topic" style="shape=partialRectangle;connectable=0;fillColor=none;top=0;left=0;bottom=0;right=0;align=left;spacingLeft=6;overflow=hidden;whiteSpace=wrap;html=1;rounded=0;labelBackgroundColor=none;" parent="UImgxeS5ZiEGcot_-h3Z-236" vertex="1">
          <mxGeometry x="30" width="150" height="30" as="geometry">
            <mxRectangle width="150" height="30" as="alternateBounds" />
          </mxGeometry>
        </mxCell>
        <mxCell id="UImgxeS5ZiEGcot_-h3Z-247" value="String" style="shape=partialRectangle;connectable=0;fillColor=none;top=0;left=0;bottom=0;right=0;align=left;spacingLeft=6;overflow=hidden;whiteSpace=wrap;html=1;rounded=0;labelBackgroundColor=none;" parent="UImgxeS5ZiEGcot_-h3Z-236" vertex="1">
          <mxGeometry x="180" width="150" height="30" as="geometry">
            <mxRectangle width="150" height="30" as="alternateBounds" />
          </mxGeometry>
        </mxCell>
        <mxCell id="2gaaM60oqQoI5mj2-Xxg-41" style="shape=tableRow;horizontal=0;startSize=0;swimlaneHead=0;swimlaneBody=0;fillColor=none;collapsible=0;dropTarget=0;points=[[0,0.5],[1,0.5]];portConstraint=eastwest;top=0;left=0;right=0;bottom=0;rounded=0;labelBackgroundColor=none;" vertex="1" parent="UImgxeS5ZiEGcot_-h3Z-232">
          <mxGeometry y="120" width="330" height="30" as="geometry" />
        </mxCell>
        <mxCell id="2gaaM60oqQoI5mj2-Xxg-42" style="shape=partialRectangle;connectable=0;fillColor=none;top=0;left=0;bottom=0;right=0;editable=1;overflow=hidden;whiteSpace=wrap;html=1;rounded=0;labelBackgroundColor=none;" vertex="1" parent="2gaaM60oqQoI5mj2-Xxg-41">
          <mxGeometry width="30" height="30" as="geometry">
            <mxRectangle width="30" height="30" as="alternateBounds" />
          </mxGeometry>
        </mxCell>
        <mxCell id="2gaaM60oqQoI5mj2-Xxg-43" value="listening" style="shape=partialRectangle;connectable=0;fillColor=none;top=0;left=0;bottom=0;right=0;align=left;spacingLeft=6;overflow=hidden;whiteSpace=wrap;html=1;rounded=0;labelBackgroundColor=none;" vertex="1" parent="2gaaM60oqQoI5mj2-Xxg-41">
          <mxGeometry x="30" width="150" height="30" as="geometry">
            <mxRectangle width="150" height="30" as="alternateBounds" />
          </mxGeometry>
        </mxCell>
        <mxCell id="2gaaM60oqQoI5mj2-Xxg-44" value="boolean" style="shape=partialRectangle;connectable=0;fillColor=none;top=0;left=0;bottom=0;right=0;align=left;spacingLeft=6;overflow=hidden;whiteSpace=wrap;html=1;rounded=0;labelBackgroundColor=none;" vertex="1" parent="2gaaM60oqQoI5mj2-Xxg-41">
          <mxGeometry x="180" width="150" height="30" as="geometry">
            <mxRectangle width="150" height="30" as="alternateBounds" />
          </mxGeometry>
        </mxCell>
        <mxCell id="UImgxeS5ZiEGcot_-h3Z-262" value="User" style="swimlane;fontStyle=0;childLayout=stackLayout;horizontal=1;startSize=26;fillColor=none;horizontalStack=0;resizeParent=1;resizeParentMax=0;resizeLast=0;collapsible=1;marginBottom=0;whiteSpace=wrap;html=1;rounded=0;labelBackgroundColor=none;" parent="1" vertex="1">
          <mxGeometry x="-360" y="130" width="140" height="182" as="geometry" />
        </mxCell>
        <mxCell id="UImgxeS5ZiEGcot_-h3Z-263" value="+ username: String" style="text;strokeColor=none;fillColor=none;align=left;verticalAlign=top;spacingLeft=4;spacingRight=4;overflow=hidden;rotatable=0;points=[[0,0.5],[1,0.5]];portConstraint=eastwest;whiteSpace=wrap;html=1;rounded=0;labelBackgroundColor=none;" parent="UImgxeS5ZiEGcot_-h3Z-262" vertex="1">
          <mxGeometry y="26" width="140" height="26" as="geometry" />
        </mxCell>
        <mxCell id="UImgxeS5ZiEGcot_-h3Z-264" value="+ email: String" style="text;strokeColor=none;fillColor=none;align=left;verticalAlign=top;spacingLeft=4;spacingRight=4;overflow=hidden;rotatable=0;points=[[0,0.5],[1,0.5]];portConstraint=eastwest;whiteSpace=wrap;html=1;rounded=0;labelBackgroundColor=none;" parent="UImgxeS5ZiEGcot_-h3Z-262" vertex="1">
          <mxGeometry y="52" width="140" height="26" as="geometry" />
        </mxCell>
        <mxCell id="UImgxeS5ZiEGcot_-h3Z-265" value="+ password: String" style="text;strokeColor=none;fillColor=none;align=left;verticalAlign=top;spacingLeft=4;spacingRight=4;overflow=hidden;rotatable=0;points=[[0,0.5],[1,0.5]];portConstraint=eastwest;whiteSpace=wrap;html=1;rounded=0;labelBackgroundColor=none;" parent="UImgxeS5ZiEGcot_-h3Z-262" vertex="1">
          <mxGeometry y="78" width="140" height="26" as="geometry" />
        </mxCell>
        <mxCell id="UImgxeS5ZiEGcot_-h3Z-266" value="+ firstName: String" style="text;strokeColor=none;fillColor=none;align=left;verticalAlign=top;spacingLeft=4;spacingRight=4;overflow=hidden;rotatable=0;points=[[0,0.5],[1,0.5]];portConstraint=eastwest;whiteSpace=wrap;html=1;rounded=0;labelBackgroundColor=none;" parent="UImgxeS5ZiEGcot_-h3Z-262" vertex="1">
          <mxGeometry y="104" width="140" height="26" as="geometry" />
        </mxCell>
        <mxCell id="UImgxeS5ZiEGcot_-h3Z-267" value="+ lastName: String" style="text;strokeColor=none;fillColor=none;align=left;verticalAlign=top;spacingLeft=4;spacingRight=4;overflow=hidden;rotatable=0;points=[[0,0.5],[1,0.5]];portConstraint=eastwest;whiteSpace=wrap;html=1;rounded=0;labelBackgroundColor=none;" parent="UImgxeS5ZiEGcot_-h3Z-262" vertex="1">
          <mxGeometry y="130" width="140" height="26" as="geometry" />
        </mxCell>
        <mxCell id="UImgxeS5ZiEGcot_-h3Z-268" value="+ phoneNumber: String" style="text;strokeColor=none;fillColor=none;align=left;verticalAlign=top;spacingLeft=4;spacingRight=4;overflow=hidden;rotatable=0;points=[[0,0.5],[1,0.5]];portConstraint=eastwest;whiteSpace=wrap;html=1;rounded=0;labelBackgroundColor=none;" parent="UImgxeS5ZiEGcot_-h3Z-262" vertex="1">
          <mxGeometry y="156" width="140" height="26" as="geometry" />
        </mxCell>
        <mxCell id="CYK-VM8VaH94oT_u2AVR-27" style="edgeStyle=orthogonalEdgeStyle;shape=connector;rounded=0;orthogonalLoop=1;jettySize=auto;html=1;exitX=1;exitY=0.5;exitDx=0;exitDy=0;entryX=0;entryY=0.5;entryDx=0;entryDy=0;labelBackgroundColor=none;strokeColor=default;fontFamily=Helvetica;fontSize=11;fontColor=default;endArrow=none;endFill=0;" parent="1" source="CYK-VM8VaH94oT_u2AVR-8" target="CYK-VM8VaH94oT_u2AVR-24" edge="1">
          <mxGeometry relative="1" as="geometry" />
        </mxCell>
        <mxCell id="CYK-VM8VaH94oT_u2AVR-37" style="edgeStyle=orthogonalEdgeStyle;shape=connector;rounded=0;orthogonalLoop=1;jettySize=auto;html=1;exitX=0.5;exitY=1;exitDx=0;exitDy=0;entryX=0.5;entryY=0;entryDx=0;entryDy=0;labelBackgroundColor=none;strokeColor=default;fontFamily=Helvetica;fontSize=11;fontColor=default;endArrow=none;endFill=0;" parent="1" source="CYK-VM8VaH94oT_u2AVR-8" target="CYK-VM8VaH94oT_u2AVR-36" edge="1">
          <mxGeometry relative="1" as="geometry" />
        </mxCell>
        <mxCell id="CYK-VM8VaH94oT_u2AVR-8" value="User" style="whiteSpace=wrap;html=1;align=center;rounded=0;labelBackgroundColor=none;" parent="1" vertex="1">
          <mxGeometry x="560" y="-510" width="100" height="40" as="geometry" />
        </mxCell>
        <mxCell id="CYK-VM8VaH94oT_u2AVR-19" style="edgeStyle=orthogonalEdgeStyle;rounded=0;orthogonalLoop=1;jettySize=auto;html=1;exitX=1;exitY=0.5;exitDx=0;exitDy=0;entryX=0;entryY=0.5;entryDx=0;entryDy=0;endArrow=none;endFill=0;labelBackgroundColor=none;fontColor=default;" parent="1" source="CYK-VM8VaH94oT_u2AVR-9" target="CYK-VM8VaH94oT_u2AVR-8" edge="1">
          <mxGeometry relative="1" as="geometry" />
        </mxCell>
        <mxCell id="CYK-VM8VaH94oT_u2AVR-9" value="password" style="ellipse;whiteSpace=wrap;html=1;align=center;rounded=0;labelBackgroundColor=none;" parent="1" vertex="1">
          <mxGeometry x="334" y="-560" width="100" height="40" as="geometry" />
        </mxCell>
        <mxCell id="CYK-VM8VaH94oT_u2AVR-20" style="edgeStyle=orthogonalEdgeStyle;rounded=0;orthogonalLoop=1;jettySize=auto;html=1;exitX=1;exitY=0.5;exitDx=0;exitDy=0;entryX=0;entryY=0.5;entryDx=0;entryDy=0;endArrow=none;endFill=0;labelBackgroundColor=none;fontColor=default;" parent="1" source="CYK-VM8VaH94oT_u2AVR-10" target="CYK-VM8VaH94oT_u2AVR-8" edge="1">
          <mxGeometry relative="1" as="geometry" />
        </mxCell>
        <mxCell id="CYK-VM8VaH94oT_u2AVR-10" value="firstname" style="ellipse;whiteSpace=wrap;html=1;align=center;rounded=0;labelBackgroundColor=none;" parent="1" vertex="1">
          <mxGeometry x="334" y="-510" width="100" height="40" as="geometry" />
        </mxCell>
        <mxCell id="CYK-VM8VaH94oT_u2AVR-16" style="edgeStyle=orthogonalEdgeStyle;rounded=0;orthogonalLoop=1;jettySize=auto;html=1;exitX=1;exitY=0.5;exitDx=0;exitDy=0;entryX=0;entryY=0.5;entryDx=0;entryDy=0;endArrow=none;endFill=0;labelBackgroundColor=none;fontColor=default;strokeColor=default;" parent="1" source="CYK-VM8VaH94oT_u2AVR-11" target="CYK-VM8VaH94oT_u2AVR-8" edge="1">
          <mxGeometry relative="1" as="geometry">
            <mxPoint x="560" y="-680" as="targetPoint" />
          </mxGeometry>
        </mxCell>
        <mxCell id="CYK-VM8VaH94oT_u2AVR-11" value="username" style="ellipse;whiteSpace=wrap;html=1;align=center;rounded=0;labelBackgroundColor=none;" parent="1" vertex="1">
          <mxGeometry x="334" y="-650" width="100" height="40" as="geometry" />
        </mxCell>
        <mxCell id="CYK-VM8VaH94oT_u2AVR-17" style="edgeStyle=orthogonalEdgeStyle;rounded=0;orthogonalLoop=1;jettySize=auto;html=1;exitX=1;exitY=0.5;exitDx=0;exitDy=0;entryX=0;entryY=0.5;entryDx=0;entryDy=0;endArrow=none;endFill=0;labelBackgroundColor=none;fontColor=default;" parent="1" source="CYK-VM8VaH94oT_u2AVR-12" target="CYK-VM8VaH94oT_u2AVR-8" edge="1">
          <mxGeometry relative="1" as="geometry" />
        </mxCell>
        <mxCell id="CYK-VM8VaH94oT_u2AVR-12" value="email" style="ellipse;whiteSpace=wrap;html=1;align=center;rounded=0;labelBackgroundColor=none;" parent="1" vertex="1">
          <mxGeometry x="334" y="-604" width="100" height="40" as="geometry" />
        </mxCell>
        <mxCell id="CYK-VM8VaH94oT_u2AVR-21" style="edgeStyle=orthogonalEdgeStyle;rounded=0;orthogonalLoop=1;jettySize=auto;html=1;exitX=1;exitY=0.5;exitDx=0;exitDy=0;entryX=0;entryY=0.5;entryDx=0;entryDy=0;endArrow=none;endFill=0;labelBackgroundColor=none;fontColor=default;" parent="1" source="CYK-VM8VaH94oT_u2AVR-13" target="CYK-VM8VaH94oT_u2AVR-8" edge="1">
          <mxGeometry relative="1" as="geometry" />
        </mxCell>
        <mxCell id="CYK-VM8VaH94oT_u2AVR-13" value="lastname" style="ellipse;whiteSpace=wrap;html=1;align=center;rounded=0;labelBackgroundColor=none;" parent="1" vertex="1">
          <mxGeometry x="334" y="-460" width="100" height="40" as="geometry" />
        </mxCell>
        <mxCell id="CYK-VM8VaH94oT_u2AVR-22" style="edgeStyle=orthogonalEdgeStyle;rounded=0;orthogonalLoop=1;jettySize=auto;html=1;exitX=1;exitY=0.5;exitDx=0;exitDy=0;entryX=0;entryY=0.5;entryDx=0;entryDy=0;endArrow=none;endFill=0;labelBackgroundColor=none;fontColor=default;" parent="1" source="CYK-VM8VaH94oT_u2AVR-14" target="CYK-VM8VaH94oT_u2AVR-8" edge="1">
          <mxGeometry relative="1" as="geometry" />
        </mxCell>
        <mxCell id="CYK-VM8VaH94oT_u2AVR-14" value="phone number" style="ellipse;whiteSpace=wrap;html=1;align=center;rounded=0;labelBackgroundColor=none;" parent="1" vertex="1">
          <mxGeometry x="334" y="-410" width="100" height="40" as="geometry" />
        </mxCell>
        <mxCell id="CYK-VM8VaH94oT_u2AVR-23" style="edgeStyle=orthogonalEdgeStyle;rounded=0;orthogonalLoop=1;jettySize=auto;html=1;exitX=1;exitY=0.5;exitDx=0;exitDy=0;entryX=0;entryY=0.5;entryDx=0;entryDy=0;endArrow=none;endFill=0;labelBackgroundColor=none;fontColor=default;" parent="1" source="CYK-VM8VaH94oT_u2AVR-15" target="CYK-VM8VaH94oT_u2AVR-8" edge="1">
          <mxGeometry relative="1" as="geometry" />
        </mxCell>
        <mxCell id="CYK-VM8VaH94oT_u2AVR-15" value="id" style="ellipse;whiteSpace=wrap;html=1;align=center;fontStyle=4;rounded=0;labelBackgroundColor=none;" parent="1" vertex="1">
          <mxGeometry x="334" y="-360" width="100" height="40" as="geometry" />
        </mxCell>
        <mxCell id="CYK-VM8VaH94oT_u2AVR-29" style="edgeStyle=orthogonalEdgeStyle;shape=connector;rounded=0;orthogonalLoop=1;jettySize=auto;html=1;exitX=1;exitY=0.5;exitDx=0;exitDy=0;entryX=0;entryY=0.5;entryDx=0;entryDy=0;labelBackgroundColor=none;strokeColor=default;fontFamily=Helvetica;fontSize=11;fontColor=default;endArrow=none;endFill=0;" parent="1" source="CYK-VM8VaH94oT_u2AVR-24" target="CYK-VM8VaH94oT_u2AVR-28" edge="1">
          <mxGeometry relative="1" as="geometry" />
        </mxCell>
        <mxCell id="CYK-VM8VaH94oT_u2AVR-24" value="login" style="shape=rhombus;perimeter=rhombusPerimeter;whiteSpace=wrap;html=1;align=center;rounded=0;labelBackgroundColor=none;" parent="1" vertex="1">
          <mxGeometry x="740" y="-520" width="120" height="60" as="geometry" />
        </mxCell>
        <mxCell id="CYK-VM8VaH94oT_u2AVR-44" style="edgeStyle=orthogonalEdgeStyle;shape=connector;rounded=0;orthogonalLoop=1;jettySize=auto;html=1;exitX=0.5;exitY=1;exitDx=0;exitDy=0;entryX=0.5;entryY=0;entryDx=0;entryDy=0;labelBackgroundColor=none;strokeColor=default;fontFamily=Helvetica;fontSize=11;fontColor=default;endArrow=none;endFill=0;" parent="1" source="CYK-VM8VaH94oT_u2AVR-28" target="CYK-VM8VaH94oT_u2AVR-43" edge="1">
          <mxGeometry relative="1" as="geometry" />
        </mxCell>
        <mxCell id="CYK-VM8VaH94oT_u2AVR-28" value="Login History" style="whiteSpace=wrap;html=1;align=center;rounded=0;labelBackgroundColor=none;" parent="1" vertex="1">
          <mxGeometry x="940" y="-510" width="100" height="40" as="geometry" />
        </mxCell>
        <mxCell id="CYK-VM8VaH94oT_u2AVR-33" style="edgeStyle=orthogonalEdgeStyle;shape=connector;rounded=0;orthogonalLoop=1;jettySize=auto;html=1;exitX=0.5;exitY=1;exitDx=0;exitDy=0;entryX=0.5;entryY=0;entryDx=0;entryDy=0;labelBackgroundColor=none;strokeColor=default;fontFamily=Helvetica;fontSize=11;fontColor=default;endArrow=none;endFill=0;" parent="1" source="CYK-VM8VaH94oT_u2AVR-30" target="CYK-VM8VaH94oT_u2AVR-24" edge="1">
          <mxGeometry relative="1" as="geometry" />
        </mxCell>
        <mxCell id="CYK-VM8VaH94oT_u2AVR-30" value="time" style="ellipse;whiteSpace=wrap;html=1;align=center;rounded=0;labelBackgroundColor=none;" parent="1" vertex="1">
          <mxGeometry x="750" y="-600" width="100" height="40" as="geometry" />
        </mxCell>
        <mxCell id="CYK-VM8VaH94oT_u2AVR-35" style="edgeStyle=orthogonalEdgeStyle;shape=connector;rounded=0;orthogonalLoop=1;jettySize=auto;html=1;exitX=0.5;exitY=1;exitDx=0;exitDy=0;entryX=1;entryY=0.5;entryDx=0;entryDy=0;labelBackgroundColor=none;strokeColor=default;fontFamily=Helvetica;fontSize=11;fontColor=default;endArrow=none;endFill=0;" parent="1" source="CYK-VM8VaH94oT_u2AVR-31" target="CYK-VM8VaH94oT_u2AVR-28" edge="1">
          <mxGeometry relative="1" as="geometry" />
        </mxCell>
        <mxCell id="CYK-VM8VaH94oT_u2AVR-31" value="type" style="ellipse;whiteSpace=wrap;html=1;align=center;rounded=0;labelBackgroundColor=none;" parent="1" vertex="1">
          <mxGeometry x="1060" y="-584" width="100" height="40" as="geometry" />
        </mxCell>
        <mxCell id="CYK-VM8VaH94oT_u2AVR-34" style="edgeStyle=orthogonalEdgeStyle;shape=connector;rounded=0;orthogonalLoop=1;jettySize=auto;html=1;exitX=0.5;exitY=1;exitDx=0;exitDy=0;entryX=0.5;entryY=0;entryDx=0;entryDy=0;labelBackgroundColor=none;strokeColor=default;fontFamily=Helvetica;fontSize=11;fontColor=default;endArrow=none;endFill=0;" parent="1" source="CYK-VM8VaH94oT_u2AVR-32" target="CYK-VM8VaH94oT_u2AVR-28" edge="1">
          <mxGeometry relative="1" as="geometry" />
        </mxCell>
        <mxCell id="CYK-VM8VaH94oT_u2AVR-32" value="source" style="ellipse;whiteSpace=wrap;html=1;align=center;rounded=0;labelBackgroundColor=none;" parent="1" vertex="1">
          <mxGeometry x="940" y="-584" width="100" height="40" as="geometry" />
        </mxCell>
        <mxCell id="CYK-VM8VaH94oT_u2AVR-41" style="edgeStyle=orthogonalEdgeStyle;shape=connector;rounded=0;orthogonalLoop=1;jettySize=auto;html=1;exitX=0.5;exitY=1;exitDx=0;exitDy=0;entryX=0.5;entryY=0;entryDx=0;entryDy=0;labelBackgroundColor=none;strokeColor=default;fontFamily=Helvetica;fontSize=11;fontColor=default;endArrow=none;endFill=0;" parent="1" source="CYK-VM8VaH94oT_u2AVR-36" target="CYK-VM8VaH94oT_u2AVR-38" edge="1">
          <mxGeometry relative="1" as="geometry" />
        </mxCell>
        <mxCell id="CYK-VM8VaH94oT_u2AVR-36" value="User Role" style="shape=rhombus;perimeter=rhombusPerimeter;whiteSpace=wrap;html=1;align=center;rounded=0;labelBackgroundColor=none;" parent="1" vertex="1">
          <mxGeometry x="550" y="-400" width="120" height="60" as="geometry" />
        </mxCell>
        <mxCell id="CYK-VM8VaH94oT_u2AVR-40" style="edgeStyle=orthogonalEdgeStyle;shape=connector;rounded=0;orthogonalLoop=1;jettySize=auto;html=1;exitX=0.5;exitY=1;exitDx=0;exitDy=0;entryX=0.5;entryY=0;entryDx=0;entryDy=0;labelBackgroundColor=none;strokeColor=default;fontFamily=Helvetica;fontSize=11;fontColor=default;endArrow=none;endFill=0;" parent="1" source="CYK-VM8VaH94oT_u2AVR-38" target="CYK-VM8VaH94oT_u2AVR-39" edge="1">
          <mxGeometry relative="1" as="geometry" />
        </mxCell>
        <mxCell id="CYK-VM8VaH94oT_u2AVR-46" style="edgeStyle=orthogonalEdgeStyle;shape=connector;rounded=0;orthogonalLoop=1;jettySize=auto;html=1;exitX=1;exitY=0.5;exitDx=0;exitDy=0;entryX=0;entryY=0.5;entryDx=0;entryDy=0;labelBackgroundColor=none;strokeColor=default;fontFamily=Helvetica;fontSize=11;fontColor=default;endArrow=none;endFill=0;" parent="1" source="CYK-VM8VaH94oT_u2AVR-38" target="CYK-VM8VaH94oT_u2AVR-42" edge="1">
          <mxGeometry relative="1" as="geometry" />
        </mxCell>
        <mxCell id="CYK-VM8VaH94oT_u2AVR-38" value="Role" style="whiteSpace=wrap;html=1;align=center;rounded=0;labelBackgroundColor=none;" parent="1" vertex="1">
          <mxGeometry x="560" y="-290" width="100" height="40" as="geometry" />
        </mxCell>
        <mxCell id="CYK-VM8VaH94oT_u2AVR-39" value="name" style="ellipse;whiteSpace=wrap;html=1;align=center;rounded=0;labelBackgroundColor=none;" parent="1" vertex="1">
          <mxGeometry x="560" y="-200" width="100" height="40" as="geometry" />
        </mxCell>
        <mxCell id="CYK-VM8VaH94oT_u2AVR-42" value="id" style="ellipse;whiteSpace=wrap;html=1;align=center;fontStyle=4;rounded=0;labelBackgroundColor=none;" parent="1" vertex="1">
          <mxGeometry x="695" y="-290" width="100" height="40" as="geometry" />
        </mxCell>
        <mxCell id="CYK-VM8VaH94oT_u2AVR-43" value="id" style="ellipse;whiteSpace=wrap;html=1;align=center;fontStyle=4;rounded=0;labelBackgroundColor=none;" parent="1" vertex="1">
          <mxGeometry x="940" y="-440" width="100" height="40" as="geometry" />
        </mxCell>
        <mxCell id="CYK-VM8VaH94oT_u2AVR-47" value="Entity" style="whiteSpace=wrap;html=1;align=center;rounded=0;labelBackgroundColor=none;" parent="1" vertex="1">
          <mxGeometry x="-120" y="1200" width="100" height="40" as="geometry" />
        </mxCell>
        <mxCell id="CYK-VM8VaH94oT_u2AVR-48" value="Attribute" style="ellipse;whiteSpace=wrap;html=1;align=center;rounded=0;labelBackgroundColor=none;" parent="1" vertex="1">
          <mxGeometry x="-120" y="1300" width="100" height="40" as="geometry" />
        </mxCell>
        <mxCell id="CYK-VM8VaH94oT_u2AVR-49" value="Attribute" style="ellipse;whiteSpace=wrap;html=1;align=center;fontStyle=4;rounded=0;labelBackgroundColor=none;" parent="1" vertex="1">
          <mxGeometry x="-120" y="1250" width="100" height="40" as="geometry" />
        </mxCell>
        <mxCell id="CYK-VM8VaH94oT_u2AVR-50" value="Entity" style="shape=ext;margin=3;double=1;whiteSpace=wrap;html=1;align=center;rounded=0;labelBackgroundColor=none;" parent="1" vertex="1">
          <mxGeometry x="-120" y="1350" width="100" height="40" as="geometry" />
        </mxCell>
        <mxCell id="CYK-VM8VaH94oT_u2AVR-51" value="Attribute" style="ellipse;whiteSpace=wrap;html=1;align=center;dashed=1;rounded=0;labelBackgroundColor=none;" parent="1" vertex="1">
          <mxGeometry x="-120" y="1410" width="100" height="40" as="geometry" />
        </mxCell>
        <mxCell id="CYK-VM8VaH94oT_u2AVR-52" value="&lt;span style=&quot;border-bottom: 1px dotted&quot;&gt;Attribute&lt;/span&gt;" style="ellipse;whiteSpace=wrap;html=1;align=center;rounded=0;labelBackgroundColor=none;" parent="1" vertex="1">
          <mxGeometry x="-120" y="1460" width="100" height="40" as="geometry" />
        </mxCell>
        <mxCell id="CYK-VM8VaH94oT_u2AVR-53" value="Relationship" style="shape=rhombus;perimeter=rhombusPerimeter;whiteSpace=wrap;html=1;align=center;rounded=0;labelBackgroundColor=none;" parent="1" vertex="1">
          <mxGeometry x="-130" y="1130" width="120" height="60" as="geometry" />
        </mxCell>
        <mxCell id="CYK-VM8VaH94oT_u2AVR-54" value="Message" style="whiteSpace=wrap;html=1;align=center;rounded=0;labelBackgroundColor=none;" parent="1" vertex="1">
          <mxGeometry x="1114" y="1290" width="100" height="40" as="geometry" />
        </mxCell>
        <mxCell id="CYK-VM8VaH94oT_u2AVR-56" style="edgeStyle=orthogonalEdgeStyle;shape=connector;rounded=0;orthogonalLoop=1;jettySize=auto;html=1;exitX=1;exitY=0.5;exitDx=0;exitDy=0;entryX=0;entryY=0.5;entryDx=0;entryDy=0;labelBackgroundColor=none;strokeColor=default;fontFamily=Helvetica;fontSize=11;fontColor=default;endArrow=none;endFill=0;" parent="1" source="CYK-VM8VaH94oT_u2AVR-55" target="CYK-VM8VaH94oT_u2AVR-54" edge="1">
          <mxGeometry relative="1" as="geometry" />
        </mxCell>
        <mxCell id="CYK-VM8VaH94oT_u2AVR-55" value="id" style="ellipse;whiteSpace=wrap;html=1;align=center;fontStyle=4;rounded=0;labelBackgroundColor=none;" parent="1" vertex="1">
          <mxGeometry x="974" y="1110" width="100" height="40" as="geometry" />
        </mxCell>
        <mxCell id="CYK-VM8VaH94oT_u2AVR-64" style="edgeStyle=orthogonalEdgeStyle;shape=connector;rounded=0;orthogonalLoop=1;jettySize=auto;html=1;exitX=1;exitY=0.5;exitDx=0;exitDy=0;entryX=0;entryY=0.5;entryDx=0;entryDy=0;labelBackgroundColor=none;strokeColor=default;fontFamily=Helvetica;fontSize=11;fontColor=default;endArrow=none;endFill=0;" parent="1" source="CYK-VM8VaH94oT_u2AVR-57" target="CYK-VM8VaH94oT_u2AVR-54" edge="1">
          <mxGeometry relative="1" as="geometry" />
        </mxCell>
        <mxCell id="CYK-VM8VaH94oT_u2AVR-57" value="time" style="ellipse;whiteSpace=wrap;html=1;align=center;rounded=0;labelBackgroundColor=none;" parent="1" vertex="1">
          <mxGeometry x="974" y="1160" width="100" height="40" as="geometry" />
        </mxCell>
        <mxCell id="CYK-VM8VaH94oT_u2AVR-65" style="edgeStyle=orthogonalEdgeStyle;shape=connector;rounded=0;orthogonalLoop=1;jettySize=auto;html=1;exitX=1;exitY=0.5;exitDx=0;exitDy=0;entryX=0;entryY=0.5;entryDx=0;entryDy=0;labelBackgroundColor=none;strokeColor=default;fontFamily=Helvetica;fontSize=11;fontColor=default;endArrow=none;endFill=0;" parent="1" source="CYK-VM8VaH94oT_u2AVR-58" target="CYK-VM8VaH94oT_u2AVR-54" edge="1">
          <mxGeometry relative="1" as="geometry" />
        </mxCell>
        <mxCell id="CYK-VM8VaH94oT_u2AVR-78" style="edgeStyle=orthogonalEdgeStyle;shape=connector;rounded=0;orthogonalLoop=1;jettySize=auto;html=1;exitX=0;exitY=0.5;exitDx=0;exitDy=0;entryX=1;entryY=0.5;entryDx=0;entryDy=0;labelBackgroundColor=none;strokeColor=default;fontFamily=Helvetica;fontSize=11;fontColor=default;endArrow=none;endFill=0;" parent="1" source="CYK-VM8VaH94oT_u2AVR-58" target="CYK-VM8VaH94oT_u2AVR-72" edge="1">
          <mxGeometry relative="1" as="geometry" />
        </mxCell>
        <mxCell id="CYK-VM8VaH94oT_u2AVR-58" value="source" style="ellipse;whiteSpace=wrap;html=1;align=center;rounded=0;labelBackgroundColor=none;" parent="1" vertex="1">
          <mxGeometry x="974" y="1210" width="100" height="40" as="geometry" />
        </mxCell>
        <mxCell id="CYK-VM8VaH94oT_u2AVR-67" style="edgeStyle=orthogonalEdgeStyle;shape=connector;rounded=0;orthogonalLoop=1;jettySize=auto;html=1;exitX=1;exitY=0.5;exitDx=0;exitDy=0;entryX=0;entryY=0.5;entryDx=0;entryDy=0;labelBackgroundColor=none;strokeColor=default;fontFamily=Helvetica;fontSize=11;fontColor=default;endArrow=none;endFill=0;" parent="1" source="CYK-VM8VaH94oT_u2AVR-59" target="CYK-VM8VaH94oT_u2AVR-54" edge="1">
          <mxGeometry relative="1" as="geometry" />
        </mxCell>
        <mxCell id="CYK-VM8VaH94oT_u2AVR-76" style="edgeStyle=orthogonalEdgeStyle;shape=connector;rounded=0;orthogonalLoop=1;jettySize=auto;html=1;exitX=0;exitY=0.5;exitDx=0;exitDy=0;entryX=1;entryY=0.5;entryDx=0;entryDy=0;labelBackgroundColor=none;strokeColor=default;fontFamily=Helvetica;fontSize=11;fontColor=default;endArrow=none;endFill=0;" parent="1" source="CYK-VM8VaH94oT_u2AVR-59" target="CYK-VM8VaH94oT_u2AVR-72" edge="1">
          <mxGeometry relative="1" as="geometry" />
        </mxCell>
        <mxCell id="CYK-VM8VaH94oT_u2AVR-59" value="destination" style="ellipse;whiteSpace=wrap;html=1;align=center;rounded=0;labelBackgroundColor=none;" parent="1" vertex="1">
          <mxGeometry x="974" y="1260" width="100" height="40" as="geometry" />
        </mxCell>
        <mxCell id="CYK-VM8VaH94oT_u2AVR-68" style="edgeStyle=orthogonalEdgeStyle;shape=connector;rounded=0;orthogonalLoop=1;jettySize=auto;html=1;exitX=1;exitY=0.5;exitDx=0;exitDy=0;entryX=0;entryY=0.5;entryDx=0;entryDy=0;labelBackgroundColor=none;strokeColor=default;fontFamily=Helvetica;fontSize=11;fontColor=default;endArrow=none;endFill=0;" parent="1" source="CYK-VM8VaH94oT_u2AVR-60" target="CYK-VM8VaH94oT_u2AVR-54" edge="1">
          <mxGeometry relative="1" as="geometry" />
        </mxCell>
        <mxCell id="CYK-VM8VaH94oT_u2AVR-60" value="type" style="ellipse;whiteSpace=wrap;html=1;align=center;rounded=0;labelBackgroundColor=none;" parent="1" vertex="1">
          <mxGeometry x="974" y="1310" width="100" height="40" as="geometry" />
        </mxCell>
        <mxCell id="CYK-VM8VaH94oT_u2AVR-71" style="edgeStyle=orthogonalEdgeStyle;shape=connector;rounded=0;orthogonalLoop=1;jettySize=auto;html=1;exitX=1;exitY=0.5;exitDx=0;exitDy=0;entryX=0;entryY=0.5;entryDx=0;entryDy=0;labelBackgroundColor=none;strokeColor=default;fontFamily=Helvetica;fontSize=11;fontColor=default;endArrow=none;endFill=0;" parent="1" source="CYK-VM8VaH94oT_u2AVR-61" target="CYK-VM8VaH94oT_u2AVR-54" edge="1">
          <mxGeometry relative="1" as="geometry" />
        </mxCell>
        <mxCell id="CYK-VM8VaH94oT_u2AVR-61" value="state" style="ellipse;whiteSpace=wrap;html=1;align=center;rounded=0;labelBackgroundColor=none;" parent="1" vertex="1">
          <mxGeometry x="974" y="1460" width="100" height="40" as="geometry" />
        </mxCell>
        <mxCell id="CYK-VM8VaH94oT_u2AVR-70" style="edgeStyle=orthogonalEdgeStyle;shape=connector;rounded=0;orthogonalLoop=1;jettySize=auto;html=1;exitX=1;exitY=0.5;exitDx=0;exitDy=0;entryX=0;entryY=0.5;entryDx=0;entryDy=0;labelBackgroundColor=none;strokeColor=default;fontFamily=Helvetica;fontSize=11;fontColor=default;endArrow=none;endFill=0;" parent="1" source="CYK-VM8VaH94oT_u2AVR-62" target="CYK-VM8VaH94oT_u2AVR-54" edge="1">
          <mxGeometry relative="1" as="geometry" />
        </mxCell>
        <mxCell id="CYK-VM8VaH94oT_u2AVR-62" value="location" style="ellipse;whiteSpace=wrap;html=1;align=center;rounded=0;labelBackgroundColor=none;" parent="1" vertex="1">
          <mxGeometry x="974" y="1410" width="100" height="40" as="geometry" />
        </mxCell>
        <mxCell id="CYK-VM8VaH94oT_u2AVR-69" style="edgeStyle=orthogonalEdgeStyle;shape=connector;rounded=0;orthogonalLoop=1;jettySize=auto;html=1;exitX=1;exitY=0.5;exitDx=0;exitDy=0;entryX=0;entryY=0.5;entryDx=0;entryDy=0;labelBackgroundColor=none;strokeColor=default;fontFamily=Helvetica;fontSize=11;fontColor=default;endArrow=none;endFill=0;" parent="1" source="CYK-VM8VaH94oT_u2AVR-63" target="CYK-VM8VaH94oT_u2AVR-54" edge="1">
          <mxGeometry relative="1" as="geometry" />
        </mxCell>
        <mxCell id="CYK-VM8VaH94oT_u2AVR-63" value="data" style="ellipse;whiteSpace=wrap;html=1;align=center;rounded=0;labelBackgroundColor=none;" parent="1" vertex="1">
          <mxGeometry x="974" y="1360" width="100" height="40" as="geometry" />
        </mxCell>
        <mxCell id="CYK-VM8VaH94oT_u2AVR-80" style="edgeStyle=orthogonalEdgeStyle;shape=connector;rounded=0;orthogonalLoop=1;jettySize=auto;html=1;exitX=0;exitY=0.5;exitDx=0;exitDy=0;entryX=1;entryY=0.5;entryDx=0;entryDy=0;labelBackgroundColor=none;strokeColor=default;fontFamily=Helvetica;fontSize=11;fontColor=default;endArrow=none;endFill=0;" parent="1" source="CYK-VM8VaH94oT_u2AVR-72" target="CYK-VM8VaH94oT_u2AVR-74" edge="1">
          <mxGeometry relative="1" as="geometry" />
        </mxCell>
        <mxCell id="CYK-VM8VaH94oT_u2AVR-72" value="Message Device" style="shape=rhombus;perimeter=rhombusPerimeter;whiteSpace=wrap;html=1;align=center;rounded=0;labelBackgroundColor=none;" parent="1" vertex="1">
          <mxGeometry x="794" y="1225" width="120" height="60" as="geometry" />
        </mxCell>
        <mxCell id="CYK-VM8VaH94oT_u2AVR-83" style="edgeStyle=orthogonalEdgeStyle;shape=connector;rounded=0;orthogonalLoop=1;jettySize=auto;html=1;exitX=0.5;exitY=1;exitDx=0;exitDy=0;entryX=0.5;entryY=0;entryDx=0;entryDy=0;labelBackgroundColor=none;strokeColor=default;fontFamily=Helvetica;fontSize=11;fontColor=default;endArrow=none;endFill=0;" parent="1" source="CYK-VM8VaH94oT_u2AVR-74" target="CYK-VM8VaH94oT_u2AVR-82" edge="1">
          <mxGeometry relative="1" as="geometry" />
        </mxCell>
        <mxCell id="CYK-VM8VaH94oT_u2AVR-74" value="Device" style="whiteSpace=wrap;html=1;align=center;rounded=0;labelBackgroundColor=none;" parent="1" vertex="1">
          <mxGeometry x="644" y="1235" width="100" height="40" as="geometry" />
        </mxCell>
        <mxCell id="CYK-VM8VaH94oT_u2AVR-81" value="Topic" style="whiteSpace=wrap;html=1;align=center;rounded=0;labelBackgroundColor=none;" parent="1" vertex="1">
          <mxGeometry x="644" y="1405" width="100" height="40" as="geometry" />
        </mxCell>
        <mxCell id="CYK-VM8VaH94oT_u2AVR-84" style="edgeStyle=orthogonalEdgeStyle;shape=connector;rounded=0;orthogonalLoop=1;jettySize=auto;html=1;exitX=0.5;exitY=1;exitDx=0;exitDy=0;entryX=0.5;entryY=0;entryDx=0;entryDy=0;labelBackgroundColor=none;strokeColor=default;fontFamily=Helvetica;fontSize=11;fontColor=default;endArrow=none;endFill=0;" parent="1" source="CYK-VM8VaH94oT_u2AVR-82" target="CYK-VM8VaH94oT_u2AVR-81" edge="1">
          <mxGeometry relative="1" as="geometry" />
        </mxCell>
        <mxCell id="CYK-VM8VaH94oT_u2AVR-82" value="Subscribe Topic" style="shape=rhombus;perimeter=rhombusPerimeter;whiteSpace=wrap;html=1;align=center;rounded=0;labelBackgroundColor=none;" parent="1" vertex="1">
          <mxGeometry x="634" y="1310" width="120" height="60" as="geometry" />
        </mxCell>
        <mxCell id="CYK-VM8VaH94oT_u2AVR-88" style="edgeStyle=orthogonalEdgeStyle;shape=connector;rounded=0;orthogonalLoop=1;jettySize=auto;html=1;exitX=1;exitY=0.5;exitDx=0;exitDy=0;entryX=0;entryY=0.5;entryDx=0;entryDy=0;labelBackgroundColor=none;strokeColor=default;fontFamily=Helvetica;fontSize=11;fontColor=default;endArrow=none;endFill=0;" parent="1" source="CYK-VM8VaH94oT_u2AVR-85" target="CYK-VM8VaH94oT_u2AVR-81" edge="1">
          <mxGeometry relative="1" as="geometry" />
        </mxCell>
        <mxCell id="CYK-VM8VaH94oT_u2AVR-85" value="name" style="ellipse;whiteSpace=wrap;html=1;align=center;rounded=0;labelBackgroundColor=none;" parent="1" vertex="1">
          <mxGeometry x="484" y="1430" width="100" height="40" as="geometry" />
        </mxCell>
        <mxCell id="CYK-VM8VaH94oT_u2AVR-87" style="edgeStyle=orthogonalEdgeStyle;shape=connector;rounded=0;orthogonalLoop=1;jettySize=auto;html=1;exitX=1;exitY=0.5;exitDx=0;exitDy=0;entryX=0;entryY=0.5;entryDx=0;entryDy=0;labelBackgroundColor=none;strokeColor=default;fontFamily=Helvetica;fontSize=11;fontColor=default;endArrow=none;endFill=0;" parent="1" source="CYK-VM8VaH94oT_u2AVR-86" target="CYK-VM8VaH94oT_u2AVR-81" edge="1">
          <mxGeometry relative="1" as="geometry" />
        </mxCell>
        <mxCell id="CYK-VM8VaH94oT_u2AVR-86" value="id" style="ellipse;whiteSpace=wrap;html=1;align=center;fontStyle=4;rounded=0;labelBackgroundColor=none;" parent="1" vertex="1">
          <mxGeometry x="484" y="1380" width="100" height="40" as="geometry" />
        </mxCell>
        <mxCell id="CYK-VM8VaH94oT_u2AVR-90" style="edgeStyle=orthogonalEdgeStyle;shape=connector;rounded=0;orthogonalLoop=1;jettySize=auto;html=1;exitX=1;exitY=0.5;exitDx=0;exitDy=0;entryX=0;entryY=0.5;entryDx=0;entryDy=0;labelBackgroundColor=none;strokeColor=default;fontFamily=Helvetica;fontSize=11;fontColor=default;endArrow=none;endFill=0;" parent="1" source="CYK-VM8VaH94oT_u2AVR-89" target="CYK-VM8VaH94oT_u2AVR-74" edge="1">
          <mxGeometry relative="1" as="geometry" />
        </mxCell>
        <mxCell id="CYK-VM8VaH94oT_u2AVR-89" value="Device Category" style="shape=rhombus;perimeter=rhombusPerimeter;whiteSpace=wrap;html=1;align=center;rounded=0;labelBackgroundColor=none;" parent="1" vertex="1">
          <mxGeometry x="474" y="1225" width="120" height="60" as="geometry" />
        </mxCell>
        <mxCell id="CYK-VM8VaH94oT_u2AVR-92" style="edgeStyle=orthogonalEdgeStyle;shape=connector;rounded=0;orthogonalLoop=1;jettySize=auto;html=1;exitX=1;exitY=0.5;exitDx=0;exitDy=0;entryX=0;entryY=0.5;entryDx=0;entryDy=0;labelBackgroundColor=none;strokeColor=default;fontFamily=Helvetica;fontSize=11;fontColor=default;endArrow=none;endFill=0;" parent="1" source="CYK-VM8VaH94oT_u2AVR-91" target="CYK-VM8VaH94oT_u2AVR-89" edge="1">
          <mxGeometry relative="1" as="geometry" />
        </mxCell>
        <mxCell id="CYK-VM8VaH94oT_u2AVR-91" value="Category" style="whiteSpace=wrap;html=1;align=center;rounded=0;labelBackgroundColor=none;" parent="1" vertex="1">
          <mxGeometry x="334" y="1235" width="100" height="40" as="geometry" />
        </mxCell>
        <mxCell id="CYK-VM8VaH94oT_u2AVR-96" style="edgeStyle=orthogonalEdgeStyle;shape=connector;rounded=0;orthogonalLoop=1;jettySize=auto;html=1;exitX=1;exitY=0.5;exitDx=0;exitDy=0;entryX=0;entryY=0.5;entryDx=0;entryDy=0;labelBackgroundColor=none;strokeColor=default;fontFamily=Helvetica;fontSize=11;fontColor=default;endArrow=none;endFill=0;" parent="1" source="CYK-VM8VaH94oT_u2AVR-93" target="CYK-VM8VaH94oT_u2AVR-91" edge="1">
          <mxGeometry relative="1" as="geometry" />
        </mxCell>
        <mxCell id="CYK-VM8VaH94oT_u2AVR-93" value="category name" style="ellipse;whiteSpace=wrap;html=1;align=center;rounded=0;labelBackgroundColor=none;" parent="1" vertex="1">
          <mxGeometry x="190" y="1260" width="100" height="40" as="geometry" />
        </mxCell>
        <mxCell id="CYK-VM8VaH94oT_u2AVR-95" style="edgeStyle=orthogonalEdgeStyle;shape=connector;rounded=0;orthogonalLoop=1;jettySize=auto;html=1;exitX=1;exitY=0.5;exitDx=0;exitDy=0;entryX=0;entryY=0.5;entryDx=0;entryDy=0;labelBackgroundColor=none;strokeColor=default;fontFamily=Helvetica;fontSize=11;fontColor=default;endArrow=none;endFill=0;" parent="1" source="CYK-VM8VaH94oT_u2AVR-94" target="CYK-VM8VaH94oT_u2AVR-91" edge="1">
          <mxGeometry relative="1" as="geometry" />
        </mxCell>
        <mxCell id="CYK-VM8VaH94oT_u2AVR-94" value="id" style="ellipse;whiteSpace=wrap;html=1;align=center;fontStyle=4;rounded=0;labelBackgroundColor=none;" parent="1" vertex="1">
          <mxGeometry x="190" y="1210" width="100" height="40" as="geometry" />
        </mxCell>
        <mxCell id="2gaaM60oqQoI5mj2-Xxg-21" style="edgeStyle=orthogonalEdgeStyle;rounded=0;orthogonalLoop=1;jettySize=auto;html=1;exitX=1;exitY=0.5;exitDx=0;exitDy=0;entryX=0;entryY=0.5;entryDx=0;entryDy=0;" edge="1" parent="1" source="UImgxeS5ZiEGcot_-h3Z-61" target="2gaaM60oqQoI5mj2-Xxg-15">
          <mxGeometry relative="1" as="geometry" />
        </mxCell>
        <mxCell id="2gaaM60oqQoI5mj2-Xxg-22" value="UserIot" style="shape=table;startSize=30;container=1;collapsible=1;childLayout=tableLayout;fixedRows=1;rowLines=0;fontStyle=1;align=center;resizeLast=1;html=1;" vertex="1" parent="1">
          <mxGeometry x="210" y="620" width="330" height="120" as="geometry" />
        </mxCell>
        <mxCell id="2gaaM60oqQoI5mj2-Xxg-23" value="" style="shape=tableRow;horizontal=0;startSize=0;swimlaneHead=0;swimlaneBody=0;fillColor=none;collapsible=0;dropTarget=0;points=[[0,0.5],[1,0.5]];portConstraint=eastwest;top=0;left=0;right=0;bottom=1;" vertex="1" parent="2gaaM60oqQoI5mj2-Xxg-22">
          <mxGeometry y="30" width="330" height="30" as="geometry" />
        </mxCell>
        <mxCell id="2gaaM60oqQoI5mj2-Xxg-24" value="PK" style="shape=partialRectangle;connectable=0;fillColor=none;top=0;left=0;bottom=0;right=0;fontStyle=1;overflow=hidden;whiteSpace=wrap;html=1;" vertex="1" parent="2gaaM60oqQoI5mj2-Xxg-23">
          <mxGeometry width="30" height="30" as="geometry">
            <mxRectangle width="30" height="30" as="alternateBounds" />
          </mxGeometry>
        </mxCell>
        <mxCell id="2gaaM60oqQoI5mj2-Xxg-25" value="userIotId" style="shape=partialRectangle;connectable=0;fillColor=none;top=0;left=0;bottom=0;right=0;align=left;spacingLeft=6;fontStyle=5;overflow=hidden;whiteSpace=wrap;html=1;" vertex="1" parent="2gaaM60oqQoI5mj2-Xxg-23">
          <mxGeometry x="30" width="150" height="30" as="geometry">
            <mxRectangle width="150" height="30" as="alternateBounds" />
          </mxGeometry>
        </mxCell>
        <mxCell id="2gaaM60oqQoI5mj2-Xxg-35" value="Integer" style="shape=partialRectangle;connectable=0;fillColor=none;top=0;left=0;bottom=0;right=0;align=left;spacingLeft=6;fontStyle=5;overflow=hidden;whiteSpace=wrap;html=1;" vertex="1" parent="2gaaM60oqQoI5mj2-Xxg-23">
          <mxGeometry x="180" width="150" height="30" as="geometry">
            <mxRectangle width="150" height="30" as="alternateBounds" />
          </mxGeometry>
        </mxCell>
        <mxCell id="2gaaM60oqQoI5mj2-Xxg-26" value="" style="shape=tableRow;horizontal=0;startSize=0;swimlaneHead=0;swimlaneBody=0;fillColor=none;collapsible=0;dropTarget=0;points=[[0,0.5],[1,0.5]];portConstraint=eastwest;top=0;left=0;right=0;bottom=0;" vertex="1" parent="2gaaM60oqQoI5mj2-Xxg-22">
          <mxGeometry y="60" width="330" height="30" as="geometry" />
        </mxCell>
        <mxCell id="2gaaM60oqQoI5mj2-Xxg-27" value="FK" style="shape=partialRectangle;connectable=0;fillColor=none;top=0;left=0;bottom=0;right=0;editable=1;overflow=hidden;whiteSpace=wrap;html=1;" vertex="1" parent="2gaaM60oqQoI5mj2-Xxg-26">
          <mxGeometry width="30" height="30" as="geometry">
            <mxRectangle width="30" height="30" as="alternateBounds" />
          </mxGeometry>
        </mxCell>
        <mxCell id="2gaaM60oqQoI5mj2-Xxg-28" value="username" style="shape=partialRectangle;connectable=0;fillColor=none;top=0;left=0;bottom=0;right=0;align=left;spacingLeft=6;overflow=hidden;whiteSpace=wrap;html=1;" vertex="1" parent="2gaaM60oqQoI5mj2-Xxg-26">
          <mxGeometry x="30" width="150" height="30" as="geometry">
            <mxRectangle width="150" height="30" as="alternateBounds" />
          </mxGeometry>
        </mxCell>
        <mxCell id="2gaaM60oqQoI5mj2-Xxg-36" value="" style="shape=partialRectangle;connectable=0;fillColor=none;top=0;left=0;bottom=0;right=0;align=left;spacingLeft=6;overflow=hidden;whiteSpace=wrap;html=1;" vertex="1" parent="2gaaM60oqQoI5mj2-Xxg-26">
          <mxGeometry x="180" width="150" height="30" as="geometry">
            <mxRectangle width="150" height="30" as="alternateBounds" />
          </mxGeometry>
        </mxCell>
        <mxCell id="2gaaM60oqQoI5mj2-Xxg-29" value="" style="shape=tableRow;horizontal=0;startSize=0;swimlaneHead=0;swimlaneBody=0;fillColor=none;collapsible=0;dropTarget=0;points=[[0,0.5],[1,0.5]];portConstraint=eastwest;top=0;left=0;right=0;bottom=0;" vertex="1" parent="2gaaM60oqQoI5mj2-Xxg-22">
          <mxGeometry y="90" width="330" height="30" as="geometry" />
        </mxCell>
        <mxCell id="2gaaM60oqQoI5mj2-Xxg-30" value="FK" style="shape=partialRectangle;connectable=0;fillColor=none;top=0;left=0;bottom=0;right=0;editable=1;overflow=hidden;whiteSpace=wrap;html=1;" vertex="1" parent="2gaaM60oqQoI5mj2-Xxg-29">
          <mxGeometry width="30" height="30" as="geometry">
            <mxRectangle width="30" height="30" as="alternateBounds" />
          </mxGeometry>
        </mxCell>
        <mxCell id="2gaaM60oqQoI5mj2-Xxg-31" value="iotId" style="shape=partialRectangle;connectable=0;fillColor=none;top=0;left=0;bottom=0;right=0;align=left;spacingLeft=6;overflow=hidden;whiteSpace=wrap;html=1;" vertex="1" parent="2gaaM60oqQoI5mj2-Xxg-29">
          <mxGeometry x="30" width="150" height="30" as="geometry">
            <mxRectangle width="150" height="30" as="alternateBounds" />
          </mxGeometry>
        </mxCell>
        <mxCell id="2gaaM60oqQoI5mj2-Xxg-37" value="" style="shape=partialRectangle;connectable=0;fillColor=none;top=0;left=0;bottom=0;right=0;align=left;spacingLeft=6;overflow=hidden;whiteSpace=wrap;html=1;" vertex="1" parent="2gaaM60oqQoI5mj2-Xxg-29">
          <mxGeometry x="180" width="150" height="30" as="geometry">
            <mxRectangle width="150" height="30" as="alternateBounds" />
          </mxGeometry>
        </mxCell>
        <mxCell id="2gaaM60oqQoI5mj2-Xxg-39" style="edgeStyle=orthogonalEdgeStyle;rounded=0;orthogonalLoop=1;jettySize=auto;html=1;exitX=1;exitY=0.5;exitDx=0;exitDy=0;entryX=0;entryY=0.5;entryDx=0;entryDy=0;" edge="1" parent="1" source="UImgxeS5ZiEGcot_-h3Z-2" target="2gaaM60oqQoI5mj2-Xxg-26">
          <mxGeometry relative="1" as="geometry" />
        </mxCell>
        <mxCell id="2gaaM60oqQoI5mj2-Xxg-40" style="edgeStyle=orthogonalEdgeStyle;rounded=0;orthogonalLoop=1;jettySize=auto;html=1;exitX=0;exitY=0.5;exitDx=0;exitDy=0;entryX=0;entryY=0.5;entryDx=0;entryDy=0;" edge="1" parent="1" source="UImgxeS5ZiEGcot_-h3Z-61" target="2gaaM60oqQoI5mj2-Xxg-29">
          <mxGeometry relative="1" as="geometry" />
        </mxCell>
      </root>
    </mxGraphModel>
  </diagram>
</mxfile>
